<svg width="500" height="500" viewBox="0 0 500 500" fill="none" xmlns="http://www.w3.org/2000/svg">
<rect width="500" height="500" rx="50" fill="url(#paint0_linear_58_127)"/>
<g clip-path="url(#clip0_58_127)">
<path d="M163.58 145.062L250 58.642L336.42 145.062L317.13 163.58L250 96.4506L182.87 163.58L163.58 145.062ZM163.58 354.938L182.87 336.42L250 403.549L317.13 336.42L336.42 354.938L250 441.358L163.58 354.938ZM-1.09673e-05 51.6975C-1.09673e-05 37.5514 5.07972 25.3987 15.2392 15.2392C25.3987 5.07973 37.5514 0 51.6975 0H155.093V27.0062H51.6975C45.5247 27.0062 39.8662 29.5782 34.7222 34.7222C29.5782 39.8663 27.0062 45.5247 27.0062 51.6975V155.093H-1.09673e-05V51.6975ZM-1.09673e-05 344.907H27.0062V448.302C27.0062 454.475 29.5782 460.134 34.7222 465.278C39.8662 470.422 45.5247 472.994 51.6975 472.994H155.093V500H51.6975C37.5514 500 25.3987 494.92 15.2392 484.761C5.07972 474.601 -1.09673e-05 462.449 -1.09673e-05 448.302V344.907ZM344.907 0H448.302C462.449 0 474.601 5.07973 484.761 15.2392C494.92 25.3987 500 37.5514 500 51.6975V155.093H472.994V51.6975C472.994 45.5247 470.422 39.8663 465.278 34.7222C460.134 29.5782 454.475 27.0062 448.302 27.0062H344.907V0ZM344.907 472.994H448.302C454.475 472.994 460.134 470.422 465.278 465.278C470.422 460.134 472.994 454.475 472.994 448.302V344.907H500V448.302C500 462.449 494.92 474.601 484.761 484.761C474.601 494.92 462.449 500 448.302 500H344.907V472.994Z" fill="#0F172A"/>
</g>
<g filter="url(#filter0_d_58_127)">
<mask id="path-3-outside-1_58_127" maskUnits="userSpaceOnUse" x="96" y="177" width="309" height="142" fill="black">
<rect fill="white" x="96" y="177" width="309" height="142"/>
<path d="M97.9172 178H159.517L186.517 218.2V301.4L170.517 318H97.9172V178ZM113.917 192.4V303.6H163.917L170.317 297V220.2L151.717 192.4H113.917ZM278.239 178H294.439V318H278.239V264.6L229.639 192.4H221.839V318H205.839V178H237.239L278.239 238.6V178ZM348.361 178H403.961V318H387.961V254H331.961V318H315.961V211.4L348.361 178ZM331.961 215.2V239.6H387.961V192.4H354.161L331.961 215.2Z"/>
</mask>
<path d="M97.9172 178H159.517L186.517 218.2V301.4L170.517 318H97.9172V178ZM113.917 192.4V303.6H163.917L170.317 297V220.2L151.717 192.4H113.917ZM278.239 178H294.439V318H278.239V264.6L229.639 192.4H221.839V318H205.839V178H237.239L278.239 238.6V178ZM348.361 178H403.961V318H387.961V254H331.961V318H315.961V211.4L348.361 178ZM331.961 215.2V239.6H387.961V192.4H354.161L331.961 215.2Z" fill="#F8FAFC"/>
<path d="M97.9172 178V177H96.9172V178H97.9172ZM159.517 178L160.347 177.442L160.05 177H159.517V178ZM186.517 218.2H187.517V217.895L187.347 217.642L186.517 218.2ZM186.517 301.4L187.237 302.094L187.517 301.803V301.4H186.517ZM170.517 318V319H170.942L171.237 318.694L170.517 318ZM97.9172 318H96.9172V319H97.9172V318ZM113.917 192.4V191.4H112.917V192.4H113.917ZM113.917 303.6H112.917V304.6H113.917V303.6ZM163.917 303.6V304.6H164.34L164.635 304.296L163.917 303.6ZM170.317 297L171.035 297.696L171.317 297.405V297H170.317ZM170.317 220.2H171.317V219.896L171.148 219.644L170.317 220.2ZM151.717 192.4L152.548 191.844L152.251 191.4H151.717V192.4ZM97.9172 179H159.517V177H97.9172V179ZM158.687 178.558L185.687 218.758L187.347 217.642L160.347 177.442L158.687 178.558ZM185.517 218.2V301.4H187.517V218.2H185.517ZM185.797 300.706L169.797 317.306L171.237 318.694L187.237 302.094L185.797 300.706ZM170.517 317H97.9172V319H170.517V317ZM98.9172 318V178H96.9172V318H98.9172ZM112.917 192.4V303.6H114.917V192.4H112.917ZM113.917 304.6H163.917V302.6H113.917V304.6ZM164.635 304.296L171.035 297.696L169.599 296.304L163.199 302.904L164.635 304.296ZM171.317 297V220.2H169.317V297H171.317ZM171.148 219.644L152.548 191.844L150.886 192.956L169.486 220.756L171.148 219.644ZM151.717 191.4H113.917V193.4H151.717V191.4ZM278.239 178V177H277.239V178H278.239ZM294.439 178H295.439V177H294.439V178ZM294.439 318V319H295.439V318H294.439ZM278.239 318H277.239V319H278.239V318ZM278.239 264.6H279.239V264.295L279.069 264.042L278.239 264.6ZM229.639 192.4L230.469 191.842L230.171 191.4H229.639V192.4ZM221.839 192.4V191.4H220.839V192.4H221.839ZM221.839 318V319H222.839V318H221.839ZM205.839 318H204.839V319H205.839V318ZM205.839 178V177H204.839V178H205.839ZM237.239 178L238.067 177.44L237.77 177H237.239V178ZM278.239 238.6L277.411 239.16L279.239 241.863V238.6H278.239ZM278.239 179H294.439V177H278.239V179ZM293.439 178V318H295.439V178H293.439ZM294.439 317H278.239V319H294.439V317ZM279.239 318V264.6H277.239V318H279.239ZM279.069 264.042L230.469 191.842L228.809 192.958L277.409 265.158L279.069 264.042ZM229.639 191.4H221.839V193.4H229.639V191.4ZM220.839 192.4V318H222.839V192.4H220.839ZM221.839 317H205.839V319H221.839V317ZM206.839 318V178H204.839V318H206.839ZM205.839 179H237.239V177H205.839V179ZM236.411 178.56L277.411 239.16L279.067 238.04L238.067 177.44L236.411 178.56ZM279.239 238.6V178H277.239V238.6H279.239ZM348.361 178V177H347.938L347.643 177.304L348.361 178ZM403.961 178H404.961V177H403.961V178ZM403.961 318V319H404.961V318H403.961ZM387.961 318H386.961V319H387.961V318ZM387.961 254H388.961V253H387.961V254ZM331.961 254V253H330.961V254H331.961ZM331.961 318V319H332.961V318H331.961ZM315.961 318H314.961V319H315.961V318ZM315.961 211.4L315.243 210.704L314.961 210.995V211.4H315.961ZM331.961 215.2L331.244 214.502L330.961 214.794V215.2H331.961ZM331.961 239.6H330.961V240.6H331.961V239.6ZM387.961 239.6V240.6H388.961V239.6H387.961ZM387.961 192.4H388.961V191.4H387.961V192.4ZM354.161 192.4V191.4H353.739L353.444 191.702L354.161 192.4ZM348.361 179H403.961V177H348.361V179ZM402.961 178V318H404.961V178H402.961ZM403.961 317H387.961V319H403.961V317ZM388.961 318V254H386.961V318H388.961ZM387.961 253H331.961V255H387.961V253ZM330.961 254V318H332.961V254H330.961ZM331.961 317H315.961V319H331.961V317ZM316.961 318V211.4H314.961V318H316.961ZM316.679 212.096L349.079 178.696L347.643 177.304L315.243 210.704L316.679 212.096ZM330.961 215.2V239.6H332.961V215.2H330.961ZM331.961 240.6H387.961V238.6H331.961V240.6ZM388.961 239.6V192.4H386.961V239.6H388.961ZM387.961 191.4H354.161V193.4H387.961V191.4ZM353.444 191.702L331.244 214.502L332.677 215.898L354.877 193.098L353.444 191.702Z" fill="#1E293B" mask="url(#path-3-outside-1_58_127)"/>
</g>
<defs>
<filter id="filter0_d_58_127" x="92.9172" y="177" width="316.044" height="150" filterUnits="userSpaceOnUse" color-interpolation-filters="sRGB">
<feFlood flood-opacity="0" result="BackgroundImageFix"/>
<feColorMatrix in="SourceAlpha" type="matrix" values="0 0 0 0 0 0 0 0 0 0 0 0 0 0 0 0 0 0 127 0" result="hardAlpha"/>
<feOffset dy="4"/>
<feGaussianBlur stdDeviation="2"/>
<feComposite in2="hardAlpha" operator="out"/>
<feColorMatrix type="matrix" values="0 0 0 0 0 0 0 0 0 0 0 0 0 0 0 0 0 0 0.25 0"/>
<feBlend mode="normal" in2="BackgroundImageFix" result="effect1_dropShadow_58_127"/>
<feBlend mode="normal" in="SourceGraphic" in2="effect1_dropShadow_58_127" result="shape"/>
</filter>
<linearGradient id="paint0_linear_58_127" x1="500" y1="250" x2="0" y2="250" gradientUnits="userSpaceOnUse">
<stop stop-color="#475569"/>
<stop offset="1" stop-color="#334155"/>
</linearGradient>
<clipPath id="clip0_58_127">
<rect width="500" height="500" fill="white" transform="matrix(0 1 -1 0 500 0)"/>
</clipPath>
</defs>
</svg>
