<svg width="500" height="500" viewBox="0 0 500 500" fill="none" xmlns="http://www.w3.org/2000/svg">
<rect width="500" height="500" fill="#334155"/>
<path d="M90.2188 233V227.531L95.0625 226.594V193.938L90.2188 193V187.5H95.0625H104.312L124.125 219.062L124.312 219.031V193.938L118.5 193V187.5H132.469H137.344V193L132.469 193.938V233H123.656L103.406 201.75L103.219 201.781V226.594L109.062 227.531V233H90.2188ZM161.188 233.656C158.125 233.656 155.333 233.083 152.812 231.938C150.292 230.792 148.115 229.188 146.281 227.125C144.469 225.042 143.073 222.604 142.094 219.812C141.115 217 140.625 213.927 140.625 210.594V209.906C140.625 206.594 141.115 203.542 142.094 200.75C143.073 197.938 144.469 195.49 146.281 193.406C148.094 191.323 150.26 189.708 152.781 188.562C155.302 187.417 158.094 186.844 161.156 186.844C164.24 186.844 167.052 187.417 169.594 188.562C172.135 189.708 174.323 191.323 176.156 193.406C177.99 195.49 179.396 197.938 180.375 200.75C181.375 203.542 181.875 206.594 181.875 209.906V210.594C181.875 213.927 181.375 217 180.375 219.812C179.396 222.604 177.99 225.042 176.156 227.125C174.323 229.188 172.135 230.792 169.594 231.938C167.073 233.083 164.271 233.656 161.188 233.656ZM161.188 226.562C163.771 226.562 165.917 225.896 167.625 224.562C169.333 223.229 170.615 221.365 171.469 218.969C172.344 216.573 172.781 213.781 172.781 210.594V209.844C172.781 206.698 172.344 203.938 171.469 201.562C170.594 199.167 169.292 197.302 167.562 195.969C165.854 194.635 163.719 193.969 161.156 193.969C158.615 193.969 156.5 194.635 154.812 195.969C153.125 197.281 151.854 199.125 151 201.5C150.167 203.875 149.75 206.656 149.75 209.844V210.594C149.75 213.781 150.167 216.573 151 218.969C151.854 221.365 153.125 223.229 154.812 224.562C156.521 225.896 158.646 226.562 161.188 226.562ZM201.219 233V227.531L206.062 226.594V193.938L201.219 193V187.5H220.031V193L215.188 193.938V226.594L220.031 227.531V233H201.219ZM223.531 233V227.531L228.375 226.594V193.938L223.531 193V187.5H228.375H241.875L254.281 219.219H254.469L266.469 187.5H284.844V193L279.969 193.938V226.594L284.844 227.531V233H266V227.531L271.094 226.594V217.875L271.25 197.344L271.062 197.312L257.469 232.375H250.562L236.656 197.594L236.469 197.625L237 216.938V226.594L242.375 227.531V233H223.531ZM284.625 233V227.531L287.875 227.062L302.344 187.5H311.688L326.062 227.062L329.312 227.531V233H313.812V227.531L316.969 226.969L314.969 220.719H298.969L296.969 226.969L300.125 227.531V233H284.625ZM301.125 214H312.812L307.5 198.406L307.062 197.031H306.875L306.406 198.5L301.125 214ZM351.625 233.656C347.104 233.656 343.25 232.719 340.062 230.844C336.875 228.969 334.427 226.365 332.719 223.031C331.031 219.698 330.188 215.833 330.188 211.438V209.875C330.188 205.333 331.031 201.333 332.719 197.875C334.406 194.417 336.792 191.719 339.875 189.781C342.979 187.823 346.646 186.844 350.875 186.844C354.146 186.844 357.219 187.292 360.094 188.188C362.969 189.083 365.469 190.427 367.594 192.219V202.312H360.844L359.562 196.219C358.75 195.51 357.656 194.948 356.281 194.531C354.906 194.094 353.333 193.875 351.562 193.875C349.021 193.875 346.823 194.552 344.969 195.906C343.135 197.24 341.729 199.104 340.75 201.5C339.771 203.875 339.281 206.646 339.281 209.812V211.438C339.281 214.521 339.76 217.208 340.719 219.5C341.698 221.771 343.125 223.531 345 224.781C346.875 226.031 349.177 226.656 351.906 226.656C353.51 226.656 354.979 226.51 356.312 226.219C357.667 225.906 358.781 225.531 359.656 225.094V217.375L353.156 216.875V210.469H368.812V228.875C366.792 230.312 364.354 231.469 361.5 232.344C358.667 233.219 355.375 233.656 351.625 233.656ZM373.406 233V227.531L378.25 226.594V193.938L373.406 193V187.5H408.719V199.781H401.719L401.312 194.531H387.375V205.969H402.781V213H387.375V226H402.062L402.469 220.562H409.406V233H373.406ZM73.375 317V311.531L76.625 311.062L91.0938 271.5H100.438L114.812 311.062L118.062 311.531V317H102.562V311.531L105.719 310.969L103.719 304.719H87.7188L85.7188 310.969L88.875 311.531V317H73.375ZM89.875 298H101.562L96.25 282.406L95.8125 281.031H95.625L95.1562 282.5L89.875 298ZM132.844 317L118.219 277.5L114.156 277V271.5H132.25V277L128.156 277.625L137.094 304.469L137.781 306.969H137.969L138.625 304.531L147.562 277.625L142.781 277V271.5H160.031V277L155.906 277.5L142.188 317H132.844ZM155.5 317V311.531L158.75 311.062L173.219 271.5H182.562L196.938 311.062L200.188 311.531V317H184.688V311.531L187.844 310.969L185.844 304.719H169.844L167.844 310.969L171 311.531V317H155.5ZM172 298H183.688L178.375 282.406L177.938 281.031H177.75L177.281 282.5L172 298ZM203.219 317V311.531L208.062 310.594V277.938L203.219 277V271.5H222.031V277L217.188 277.938V310.594L222.031 311.531V317H203.219ZM225.531 317V311.531L230.375 310.594V277.938L225.531 277V271.5H230.375H239.5H245V277L239.5 277.938V310H252.344L252.781 303.344H259.75V317H225.531ZM262.562 317V311.531L265.812 311.062L280.281 271.5H289.625L304 311.062L307.25 311.531V317H291.75V311.531L294.906 310.969L292.906 304.719H276.906L274.906 310.969L278.062 311.531V317H262.562ZM279.062 298H290.75L285.438 282.406L285 281.031H284.812L284.344 282.5L279.062 298ZM310.281 317V311.531L315.125 310.594V277.938L310.281 277V271.5H315.125H330.5C335.854 271.5 340.031 272.542 343.031 274.625C346.031 276.708 347.531 279.823 347.531 283.969C347.531 286.073 346.969 287.958 345.844 289.625C344.74 291.271 343.125 292.51 341 293.344C342.812 293.74 344.323 294.438 345.531 295.438C346.76 296.438 347.677 297.656 348.281 299.094C348.885 300.51 349.188 302.062 349.188 303.75C349.188 308.104 347.75 311.406 344.875 313.656C342 315.885 337.927 317 332.656 317H310.281ZM324.25 310H332.656C335.073 310 336.917 309.479 338.188 308.438C339.458 307.375 340.094 305.812 340.094 303.75C340.094 301.521 339.552 299.823 338.469 298.656C337.385 297.469 335.677 296.875 333.344 296.875H324.25V310ZM324.25 290.562H330.812C333.25 290.562 335.125 290.062 336.438 289.062C337.75 288.062 338.406 286.604 338.406 284.688C338.406 282.583 337.74 281.031 336.406 280.031C335.094 279.031 333.125 278.531 330.5 278.531H324.25V290.562ZM352.281 317V311.531L357.125 310.594V277.938L352.281 277V271.5H357.125H366.25H371.75V277L366.25 277.938V310H379.094L379.531 303.344H386.5V317H352.281ZM389.781 317V311.531L394.625 310.594V277.938L389.781 277V271.5H425.094V283.781H418.094L417.688 278.531H403.75V289.969H419.156V297H403.75V310H418.438L418.844 304.562H425.781V317H389.781Z" fill="#F8FAFC"/>
</svg>
