<svg width="500" height="500" viewBox="0 0 500 500" fill="none" xmlns="http://www.w3.org/2000/svg">
<g clip-path="url(#clip0_139_132)">
<path d="M251.202 500C201.923 500 159.555 476.837 124.099 430.51C88.6418 384.183 69.7115 327.851 67.3077 261.513V194.901L14.4231 268.092L0 247.533L78.125 139.803L156.851 247.533L142.428 268.092L88.9423 194.079V260.691C90.5449 318.805 106.871 368.421 137.921 409.539C168.97 450.658 206.731 471.217 251.202 471.217C261.218 471.217 271.434 469.847 281.851 467.105C292.268 464.364 301.683 460.8 310.096 456.414L325.12 476.974C313.101 484.101 300.982 489.72 288.762 493.832C276.542 497.944 264.022 500 251.202 500ZM421.274 357.73L342.548 250L356.971 230.263L410.457 303.454V238.487C408.454 180.921 391.927 131.579 360.877 90.4605C329.828 49.3421 292.468 28.7829 248.798 28.7829C237.981 28.7829 227.464 30.0164 217.248 32.4836C207.031 34.9507 197.716 38.3772 189.303 42.7632L174.88 22.2039C186.098 15.0768 197.917 9.5943 210.337 5.75658C222.756 1.91886 235.577 0 248.798 0C297.676 0 339.744 23.0263 375 69.0789C410.256 115.132 429.087 171.601 431.49 238.487V303.454L484.976 231.086L500 250L421.274 357.73Z" fill="#171717"/>
</g>
<defs>
<clipPath id="clip0_139_132">
<rect width="500" height="500" fill="white"/>
</clipPath>
</defs>
</svg>
