<svg width="500" height="500" viewBox="0 0 500 500" fill="none" xmlns="http://www.w3.org/2000/svg">
<g clip-path="url(#clip0_31_122)">
<path d="M251.603 500C181.223 500 121.696 475.704 73.0208 427.111C24.3403 378.524 0 319.104 0 248.852C0 186.774 19.4418 132.73 58.3253 86.718C97.2089 40.7062 146.143 12.1015 205.128 0.903816H198.998C197.743 0.903816 197.917 0.602541 199.519 0C194.712 16.066 191.373 32.2306 189.503 48.4939C187.634 64.7572 186.699 80.354 186.699 95.2842C186.699 155.896 208.112 207.44 250.938 249.916C293.758 292.398 345.529 313.639 406.25 313.639C421.683 313.639 436.894 313.106 451.883 312.039C466.867 310.973 482.906 307.507 500 301.641C498.932 300.575 498.531 299.775 498.798 299.242C499.065 298.709 499.199 297.375 499.199 295.243C488.515 354.121 460.059 402.967 413.83 441.78C367.602 480.593 313.526 500 251.603 500ZM251.603 472.006C297.543 472.006 339.343 459.075 377.003 433.214C414.663 407.353 441.506 374.426 457.532 334.434C449.519 336.567 441.06 338.3 432.155 339.633C423.256 340.966 414.888 341.633 407.051 341.633C338.237 341.633 279.634 317.635 231.242 269.64C182.85 221.65 158.654 163.531 158.654 95.2842C158.654 86.2194 159.188 77.4212 160.256 68.8897C161.325 60.3581 163.462 51.5599 166.667 42.4952C125 60.0915 91.4797 87.6085 66.1058 125.046C40.7318 162.484 28.0449 203.752 28.0449 248.852C28.0449 311.138 49.7035 363.903 93.0208 407.147C136.343 450.386 189.204 472.006 251.603 472.006Z" fill="#171717"/>
</g>
<defs>
<clipPath id="clip0_31_122">
<rect width="500" height="500" fill="white"/>
</clipPath>
</defs>
</svg>
