<svg width="500" height="500" viewBox="0 0 500 500" fill="none" xmlns="http://www.w3.org/2000/svg">
<g clip-path="url(#clip0_31_124)">
<path d="M249.703 321.046C268.958 321.046 285.662 314.118 299.816 300.262C313.969 286.405 321.046 269.75 321.046 250.297C321.046 231.042 313.969 214.338 299.816 200.184C285.662 186.031 268.958 178.954 249.703 178.954C230.448 178.954 213.843 186.031 199.887 200.184C185.931 214.338 178.954 231.042 178.954 250.297C178.954 269.552 185.882 286.157 199.738 300.113C213.595 314.069 230.25 321.046 249.703 321.046ZM249.661 341.855C223.874 341.855 202.174 333.05 184.56 315.44C166.95 297.826 158.145 276.126 158.145 250.339C158.145 224.548 166.95 202.735 184.56 184.899C202.174 167.063 223.874 158.145 249.661 158.145C275.452 158.145 297.265 167.063 315.101 184.899C332.937 202.735 341.855 224.548 341.855 250.339C341.855 276.126 332.937 297.826 315.101 315.44C297.265 333.05 275.452 341.855 249.661 341.855ZM87.396 260.404H0V239.596H87.396V260.404ZM500 260.404H412.604V239.596H500V260.404ZM239.596 87.396V0H260.404V87.396H239.596ZM239.596 500V412.604H260.404V500H239.596ZM129.013 142.687L74.3163 89.1796L88.585 74.3163L142.093 127.824L129.013 142.687ZM411.415 425.684L357.907 373.365L371.581 357.907L425.089 410.82L411.415 425.684ZM357.313 128.419L410.82 74.9108L425.684 88.585L372.176 142.687L357.313 128.419ZM74.3163 411.415L126.635 358.502L140.904 371.581L88.585 426.278L74.3163 411.415Z" fill="#171717"/>
</g>
<defs>
<clipPath id="clip0_31_124">
<rect width="500" height="500" fill="white"/>
</clipPath>
</defs>
</svg>
