<svg width="500" height="500" viewBox="0 0 500 500" fill="none" xmlns="http://www.w3.org/2000/svg">
<g clip-path="url(#clip0_31_123)">
<path d="M251.603 500C181.448 500 121.974 475.645 73.1811 426.936C24.3937 378.221 0 318.843 0 248.8C0 186.933 19.4979 132.933 58.4936 86.8C97.4893 40.6667 146.368 12 205.128 0.8H199.119C197.783 0.8 197.917 0.533333 199.519 0C192.575 18.1333 188.702 35.4667 187.901 52C187.099 68.5333 186.699 82.9333 186.699 95.2C186.699 153.691 207.577 204.712 249.335 248.264C291.087 291.821 343.392 313.6 406.25 313.6C422.81 313.6 438.568 312.8 453.526 311.2C468.483 309.6 483.974 306.4 500 301.6C499.466 302.133 499.199 302.133 499.199 301.6V295.2C488.515 353.867 460.069 402.667 413.862 441.6C367.655 480.533 313.568 500 251.603 500Z" fill="#171717"/>
</g>
<defs>
<clipPath id="clip0_31_123">
<rect width="500" height="500" fill="white"/>
</clipPath>
</defs>
</svg>
