<svg width="500" height="500" viewBox="0 0 500 500" fill="none" xmlns="http://www.w3.org/2000/svg">
<rect width="500" height="500" fill="#E6130C"/>
<path d="M227.939 432H104.714V68.3636H230.424C266.528 68.3636 297.541 75.6435 323.464 90.2031C349.506 104.644 369.511 125.419 383.478 152.526C397.446 179.633 404.43 212.066 404.43 249.827C404.43 287.705 397.387 320.258 383.301 347.483C369.333 374.708 349.151 395.601 322.754 410.161C296.475 424.72 264.87 432 227.939 432ZM170.588 375.004H224.743C250.074 375.004 271.203 370.388 288.13 361.155C305.057 351.804 317.782 337.895 326.305 319.429C334.828 300.845 339.089 277.644 339.089 249.827C339.089 222.009 334.828 198.927 326.305 180.58C317.782 162.114 305.176 148.323 288.485 139.209C271.913 129.976 251.317 125.359 226.696 125.359H170.588V375.004Z" fill="#FBFFF8"/>
</svg>
