<svg width="2000" height="500" viewBox="0 0 2000 500" fill="none" xmlns="http://www.w3.org/2000/svg">
<g clip-path="url(#clip0_150_136)">
<rect width="2000" height="500" fill="#E6130C"/>
<path d="M169.856 116C189.056 116 205.59 119.6 219.456 126.8C233.323 133.733 243.99 143.867 251.456 157.2C259.19 170.533 263.056 186.8 263.056 206V313.2C263.056 330.8 259.856 345.867 253.456 358.4C247.323 370.667 237.856 380 225.056 386.4C212.523 392.8 196.79 396 177.856 396H94.2564V116H169.856ZM171.856 355.2C183.056 355.2 191.856 354 198.256 351.6C204.656 349.2 209.19 346.133 211.856 342.4C214.79 338.4 216.656 334.267 217.456 330C218.256 325.467 218.656 321.2 218.656 317.2V202C218.656 192.4 217.056 184.667 213.856 178.8C210.656 172.667 205.723 168.133 199.056 165.2C192.656 162.267 184.256 160.8 173.856 160.8H138.656V355.2H171.856ZM410.716 168.5L445.491 313.775L469.866 168.5H511.141L467.266 396H426.966L397.716 280.95L369.441 396H327.841L283.966 168.5H323.616L350.591 313.775L385.041 168.5H410.716ZM537.555 202.625V168.5H595.405V396H559.33V203.275L537.555 202.625ZM731.966 168.5V204.25H659.166V261.45H703.691L692.316 295.575H659.166V396H623.091V168.5H731.966ZM886.056 396H843.156L830.156 336.2H777.831L764.831 396H724.206L779.456 168.5H829.831L886.056 396ZM786.606 298.175H822.031L804.156 214.975L786.606 298.175ZM1000.85 206.2C996.738 204.467 991.863 203.167 986.23 202.3C980.597 201.217 975.288 200.675 970.305 200.675C963.155 200.675 957.088 201.65 952.105 203.6C947.338 205.55 943.655 208.583 941.055 212.7C938.455 216.817 937.155 222.233 937.155 228.95V335.55C937.155 342.267 938.347 347.683 940.73 351.8C943.113 355.7 946.472 358.625 950.805 360.575C955.355 362.308 960.88 363.175 967.38 363.175C974.097 363.175 980.705 362.525 987.205 361.225C993.705 359.925 999.338 358.517 1004.1 357C1009.09 355.483 1012.12 354.617 1013.2 354.4L1018.4 388.525C1009.09 391.992 999.988 394.7 991.105 396.65C982.222 398.817 973.663 399.9 965.43 399.9C951.997 399.9 940.405 397.517 930.655 392.75C921.122 387.767 913.755 380.508 908.555 370.975C903.572 361.442 901.08 349.85 901.08 336.2V229.925C901.08 215.625 903.788 203.6 909.205 193.85C914.838 184.1 922.313 176.842 931.63 172.075C941.163 167.092 951.888 164.6 963.805 164.6C971.605 164.6 979.405 165.575 987.205 167.525C995.005 169.258 1002.8 172.075 1010.6 175.975L1000.85 206.2ZM1205.98 396H1163.08L1150.08 336.2H1097.75L1084.75 396H1044.13L1099.38 168.5H1149.75L1205.98 396ZM1106.53 298.175H1141.95L1124.08 214.975L1106.53 298.175ZM1392.7 168.5V396H1356.3L1268.22 241.95V396H1232.15V168.5H1268.22L1356.3 327.425V168.5H1392.7ZM1482.1 168.5C1497.7 168.5 1511.13 171.425 1522.4 177.275C1533.67 182.908 1542.33 191.142 1548.4 201.975C1554.68 212.808 1557.82 226.025 1557.82 241.625V328.725C1557.82 343.025 1555.22 355.267 1550.02 365.45C1545.04 375.417 1537.35 383 1526.95 388.2C1516.77 393.4 1503.98 396 1488.6 396H1420.67V168.5H1482.1ZM1483.72 362.85C1492.82 362.85 1499.97 361.875 1505.17 359.925C1510.37 357.975 1514.06 355.483 1516.22 352.45C1518.61 349.2 1520.12 345.842 1520.77 342.375C1521.42 338.692 1521.75 335.225 1521.75 331.975V238.375C1521.75 230.575 1520.45 224.292 1517.85 219.525C1515.25 214.542 1511.24 210.858 1505.82 208.475C1500.62 206.092 1493.8 204.9 1485.35 204.9H1456.75V362.85H1483.72ZM1655.61 168.5C1664.06 168.5 1672.51 169.692 1680.96 172.075C1689.41 174.458 1697.1 178.575 1704.04 184.425C1710.97 190.275 1716.49 198.508 1720.61 209.125C1724.73 219.525 1726.79 232.742 1726.79 248.775C1726.79 261.558 1725.59 272.608 1723.21 281.925C1721.04 291.242 1717.9 299.042 1713.79 305.325C1709.89 311.608 1705.34 316.592 1700.14 320.275L1728.09 396H1689.74L1667.31 331.975C1666.01 332.192 1664.71 332.3 1663.41 332.3C1662.11 332.3 1660.81 332.3 1659.51 332.3C1658.21 332.3 1656.91 332.3 1655.61 332.3H1620.84V396H1584.76V168.5H1655.61ZM1642.29 298.175C1650.74 298.175 1657.99 297.633 1664.06 296.55C1670.13 295.467 1675.11 293.3 1679.01 290.05C1682.91 286.583 1685.73 281.6 1687.46 275.1C1689.41 268.6 1690.39 259.825 1690.39 248.775C1690.39 238.592 1689.41 230.575 1687.46 224.725C1685.73 218.658 1682.91 214.217 1679.01 211.4C1675.11 208.367 1670.13 206.417 1664.06 205.55C1657.99 204.683 1650.74 204.25 1642.29 204.25H1620.84V298.175H1642.29ZM1914.69 396H1871.79L1858.79 336.2H1806.47L1793.47 396H1752.84L1808.09 168.5H1858.47L1914.69 396ZM1815.24 298.175H1850.67L1832.79 214.975L1815.24 298.175Z" fill="#FBFFF8"/>
</g>
<defs>
<clipPath id="clip0_150_136">
<rect width="2000" height="500" fill="white"/>
</clipPath>
</defs>
</svg>
