<svg width="500" height="150" viewBox="0 0 500 150" fill="none" xmlns="http://www.w3.org/2000/svg">
<g clip-path="url(#clip0_5_182)">
<path fill-rule="evenodd" clip-rule="evenodd" d="M310.774 117.947C281.771 139.391 239.584 150.817 203.198 150.817C152.223 150.817 106.521 132.009 71.7171 100.72C69.0804 98.2594 71.3655 94.9197 74.7053 96.8533C112.146 118.65 158.375 131.657 206.187 131.657C238.354 131.657 273.861 124.978 306.555 111.091C311.477 109.158 315.52 114.431 310.774 117.947Z" fill="#FF9900"/>
<path fill-rule="evenodd" clip-rule="evenodd" d="M322.903 104.06C319.211 99.3141 298.294 101.775 288.978 103.005C286.165 103.357 285.638 100.896 288.275 99.1384C304.973 87.3613 332.219 90.8768 335.383 94.7439C338.547 98.611 334.504 126.032 318.86 139.04C316.399 140.973 314.114 139.919 315.169 137.282C318.684 128.493 326.594 108.982 322.903 104.06Z" fill="#FF9900"/>
<path fill-rule="evenodd" clip-rule="evenodd" d="M289.505 16.523V5.09753C289.505 3.33976 290.736 2.28508 292.317 2.28508H343.293C344.875 2.28508 346.281 3.51553 346.281 5.09753V14.7653C346.281 16.3473 344.875 18.4566 342.414 21.9722L316.047 59.5885C325.891 59.4127 336.262 60.8189 345.051 65.7407C346.984 66.7953 347.512 68.5531 347.687 70.1351V82.2637C347.687 84.0215 345.93 85.955 343.996 84.9004C328.352 76.6388 307.434 75.76 290.208 85.0762C288.45 85.9551 286.517 84.1973 286.517 82.4395V70.8382C286.517 69.0804 286.517 65.9164 288.45 63.104L319.036 19.3355H292.493C290.911 19.3355 289.505 18.105 289.505 16.523ZM103.709 87.3612H88.2402C86.8339 87.1855 85.6035 86.1308 85.4277 84.7246V5.27332C85.4277 3.69132 86.834 2.46087 88.4159 2.46087H102.83C104.412 2.46087 105.466 3.69131 105.642 5.09753V15.4684H105.994C109.685 5.44907 116.892 0.703098 126.384 0.703098C136.052 0.703098 142.204 5.44907 146.422 15.4684C150.114 5.44907 158.727 0.703098 167.867 0.703098C174.371 0.703098 181.402 3.33976 185.797 9.49196C190.718 16.1715 189.664 25.8393 189.664 34.4523V84.7246C189.664 86.3066 188.257 87.537 186.675 87.537H171.383C169.801 87.3613 168.57 86.1308 168.57 84.7246V42.5381C168.57 39.1983 168.922 30.761 168.219 27.597C166.988 22.3237 163.649 20.7417 159.078 20.7417C155.387 20.7417 151.344 23.2026 149.762 27.2455C148.18 31.2883 148.356 37.9678 148.356 42.5381V84.7246C148.356 86.3066 146.95 87.537 145.368 87.537H129.899C128.317 87.3613 127.087 86.1308 127.087 84.7246V42.5381C127.087 33.7492 128.493 20.5659 117.595 20.5659C106.521 20.5659 106.873 33.2219 106.873 42.5381V84.7246C106.697 86.1308 105.466 87.3612 103.709 87.3612ZM390.225 0.703098C413.252 0.703098 425.732 20.3901 425.732 45.5263C425.732 69.7835 412.022 89.119 390.225 89.119C367.726 89.119 355.422 69.432 355.422 44.8232C355.246 20.0386 367.726 0.703098 390.225 0.703098ZM390.225 17.0504C378.8 17.0504 378.097 32.6946 378.097 42.3623C378.097 52.0301 377.921 72.7718 390.05 72.7718C402.002 72.7718 402.706 56.0729 402.706 45.8779C402.706 39.1983 402.354 31.1126 400.42 24.7846C398.663 19.1597 395.147 17.0504 390.225 17.0504ZM455.439 87.3612H439.97C438.388 87.1855 437.158 85.9551 437.158 84.5489V4.92174C437.334 3.51552 438.564 2.28508 440.146 2.28508H454.56C455.966 2.28508 457.021 3.33978 457.372 4.57022V16.6988H457.724C462.118 5.80065 468.095 0.703098 478.817 0.703098C485.672 0.703098 492.528 3.16396 496.922 10.0193C500.965 16.3472 500.965 27.0697 500.965 34.8039V84.9004C500.789 86.3066 499.559 87.3612 497.977 87.3612H482.508C481.102 87.1855 479.872 86.1308 479.696 84.9004V41.6592C479.696 32.8703 480.751 20.2144 470.028 20.2144C466.337 20.2144 462.821 22.6753 461.064 26.5424C458.954 31.4641 458.603 36.2101 458.603 41.6592V84.5489C458.427 86.1308 457.021 87.3612 455.439 87.3612ZM248.901 49.3934C248.901 55.3698 249.076 60.4674 246.088 65.9165C243.627 70.3109 239.76 72.9475 235.366 72.9475C229.389 72.9475 225.874 68.3773 225.874 61.6978C225.874 48.5145 237.651 46.0536 248.901 46.0536V49.3934ZM264.545 87.1855C263.49 88.0644 262.084 88.2401 260.853 87.537C255.756 83.3184 254.701 81.2091 251.889 77.1662C243.451 85.7793 237.299 88.4159 226.401 88.4159C213.394 88.4159 203.198 80.3302 203.198 64.3345C203.198 51.6785 210.054 43.2412 219.722 39.0225C228.159 35.3312 239.936 34.6281 248.901 33.5735V31.6399C248.901 27.9486 249.252 23.5542 246.967 20.3902C245.033 17.5777 241.518 16.3473 238.354 16.3473C232.377 16.3473 227.104 19.3355 225.874 25.6635C225.522 27.0697 224.643 28.4759 223.237 28.4759L208.296 26.8939C207.066 26.5423 205.659 25.6635 206.011 23.7299C209.526 5.44909 225.874 0 240.639 0C248.197 0 258.041 1.93354 264.017 7.73419C271.576 14.7653 270.873 24.2573 270.873 34.4523V58.5338C270.873 65.7407 273.861 68.9047 276.673 72.9475C277.728 74.3538 277.904 76.1115 276.673 76.9904C273.334 79.6271 267.709 84.5489 264.545 87.1855ZM45.8779 49.3934C45.8779 55.3698 46.0536 60.4674 43.0654 65.9165C40.6045 70.3109 36.7374 72.9475 32.343 72.9475C26.3666 72.9475 22.851 68.3773 22.851 61.6978C22.851 48.5145 34.6281 46.0536 45.8779 46.0536V49.3934ZM61.3462 87.1855C60.2916 88.0644 58.8854 88.2401 57.6549 87.537C52.5574 83.3184 51.5027 81.2091 48.6903 77.1662C40.253 85.7793 34.1008 88.4159 23.2026 88.4159C10.1951 88.4159 0 80.3302 0 64.3345C0 51.6785 6.8553 43.2412 16.523 39.0225C24.9604 35.3312 36.7374 34.6281 45.7021 33.5735V31.6399C45.7021 27.9486 46.0536 23.5542 43.7685 20.3902C41.835 17.5777 38.3194 16.3473 35.1554 16.3473C29.179 16.3473 23.9057 19.3355 22.6753 25.6635C22.3237 27.0697 21.4448 28.4759 20.0386 28.4759L5.09753 26.8939C3.86709 26.5423 2.46089 25.6635 2.81245 23.7299C6.32799 5.44909 22.6753 0 37.4406 0C44.999 0 54.8425 1.93354 60.8189 7.73419C68.3773 14.7653 67.6742 24.2573 67.6742 34.4523V58.5338C67.6742 65.7407 70.6624 68.9047 73.4749 72.9475C74.5295 74.3538 74.7053 76.1115 73.4749 76.9904C70.1351 79.6271 64.5102 84.5489 61.3462 87.1855Z" fill="black"/>
</g>
<defs>
<clipPath id="clip0_5_182">
<rect width="500" height="150" fill="white"/>
</clipPath>
</defs>
</svg>
