<svg width="500" height="150" viewBox="0 0 500 150" fill="none" xmlns="http://www.w3.org/2000/svg">
<g clip-path="url(#clip0_5_183)">
<path d="M123.517 59.2971C116.03 59.2971 107.672 62.1895 105.92 71.7105C105.734 72.7217 106.402 73.2043 107.046 73.352L114.72 74.2746C115.431 74.2384 115.912 73.4636 116.05 72.7348C116.704 69.4583 119.392 67.9119 122.394 67.9119C124.015 67.9119 125.835 68.4701 126.795 69.9639C127.895 71.6284 127.816 73.8904 127.816 75.811V76.9404C123.255 77.4657 117.251 77.7842 112.982 79.7114C108.055 81.9077 104.594 86.376 104.594 92.9455C104.594 101.363 109.738 105.566 116.361 105.566C121.952 105.566 125.043 104.249 129.355 99.7185C130.785 101.852 131.244 102.821 133.856 105.053C134.145 105.219 134.479 105.288 134.809 105.251C135.14 105.215 135.45 105.074 135.696 104.85V104.952C137.268 103.514 140.126 100.9 141.733 99.5149C142.375 98.9765 142.234 98.0901 141.733 97.3612C140.296 95.3191 138.767 93.671 138.767 89.8725V77.2523C138.767 71.9075 139.219 66.9795 135.392 63.2992C132.37 60.3214 127.341 59.2971 123.517 59.2971ZM226.645 59.2971C219.154 59.2971 210.802 62.1895 209.047 71.7105C208.861 72.7217 209.525 73.2043 210.174 73.352L217.848 74.2746C218.558 74.2384 219.043 73.4636 219.177 72.7348C219.835 69.4583 222.519 67.9119 225.522 67.9119C227.145 67.9119 228.962 68.4701 229.922 69.9639C231.018 71.6284 230.842 73.8904 230.842 75.811V76.9404C226.281 77.4657 220.382 77.7842 216.109 79.7114C211.179 81.9077 207.721 86.376 207.721 92.9455C207.721 101.363 212.868 105.566 219.488 105.566C225.073 105.566 228.164 104.249 232.482 99.7185C233.909 101.852 234.371 102.821 236.983 105.053C237.573 105.369 238.303 105.336 238.823 104.85V104.952C240.395 103.514 243.253 100.9 244.86 99.5149C245.499 98.9765 245.351 98.0901 244.86 97.3612C243.423 95.3191 241.894 93.671 241.894 89.8725V77.2523C241.894 71.9075 242.238 66.9795 238.417 63.2992C235.392 60.3214 230.468 59.2971 226.645 59.2971ZM168.635 59.7075C163.796 59.7075 160.208 62.1567 158.302 67.4031H158.201V61.9663C158.175 61.5935 158.015 61.2426 157.752 60.9784C157.488 60.7141 157.139 60.5543 156.767 60.5283H149.401C148.995 60.5342 148.608 60.6983 148.321 60.9858C148.035 61.2733 147.871 61.6615 147.865 62.068V103.619C147.9 103.988 148.062 104.334 148.324 104.597C148.586 104.859 148.931 105.022 149.299 105.057H157.176C157.582 105.053 157.97 104.889 158.257 104.601C158.544 104.313 158.707 103.924 158.712 103.517V81.458C158.712 76.6482 158.479 70.0689 164.133 70.0689C169.715 70.0689 168.942 76.8288 168.942 81.458V103.517C168.942 104.302 169.581 105.004 170.376 105.057H178.253C178.659 105.053 179.047 104.889 179.334 104.601C179.621 104.313 179.785 103.924 179.789 103.517V81.458C179.789 79.0974 179.694 75.66 180.506 73.5588C181.314 71.4577 183.302 70.0722 185.214 70.0722C187.492 70.0722 189.231 70.87 189.817 73.6639C190.183 75.3251 190.02 79.7146 190.02 81.4612V103.52C190.02 104.305 190.658 105.008 191.454 105.06H199.331C199.736 105.056 200.125 104.892 200.412 104.604C200.699 104.317 200.862 103.927 200.866 103.52V77.2556C200.866 72.7939 201.315 67.7281 198.82 64.225C196.617 61.0798 193.015 59.7108 189.715 59.7108C185.086 59.7108 180.781 62.16 178.872 67.4063C176.666 62.16 173.555 59.7075 168.635 59.7075ZM302.559 59.7075C291.176 59.7075 284.861 69.7439 284.861 82.6891C284.861 95.5457 291.107 105.874 302.559 105.874C313.576 105.874 320.566 95.7821 320.566 83.0962C320.566 69.9869 314.234 59.7075 302.559 59.7075ZM347.47 59.7075C342.032 59.7075 338.925 62.4358 336.729 68.1188H336.627V61.7562C336.486 61.1127 335.881 60.6662 335.193 60.6268H327.928C327.553 60.6183 327.188 60.75 326.904 60.9964C326.621 61.2427 326.438 61.5861 326.393 61.9597V103.51C326.4 103.899 326.551 104.272 326.816 104.556C327.08 104.84 327.441 105.016 327.827 105.05H335.602C336.008 105.044 336.395 104.88 336.682 104.593C336.968 104.305 337.132 103.917 337.138 103.51V81.1461C337.138 78.3423 337.374 75.7848 338.467 73.247C339.351 71.2344 341.057 69.9639 342.969 69.9639C348.397 69.9639 347.879 76.599 347.879 81.1461V103.717C347.93 104.071 348.1 104.396 348.361 104.639C348.622 104.881 348.958 105.027 349.313 105.05H357.19C357.963 105.05 358.634 104.459 358.726 103.717V77.5544C358.726 73.5326 358.736 67.9448 356.68 64.6256C354.476 61.0437 350.99 59.7075 347.47 59.7075ZM252.937 60.4265C252.138 60.4265 251.506 61.0634 251.503 61.9663V67.9152C251.506 68.8049 252.119 69.4484 252.937 69.455H266.442L250.992 92.3348C250.049 93.8089 249.971 95.48 249.971 96.4387V102.493C249.971 103.366 250.917 104.315 251.811 103.826C260.614 99.0061 271.166 99.4329 279.128 103.724C280.094 104.252 281.073 103.261 281.073 102.391V96.0283C281.05 95.5592 280.906 95.1041 280.655 94.708C280.403 94.3119 280.053 93.9884 279.639 93.7695C275.121 91.1628 269.876 90.365 264.906 90.4864L278.31 70.7879C279.55 69.0183 280.244 67.9513 280.254 67.0945V61.9663C280.254 61.0831 279.652 60.4265 278.82 60.4265H252.937ZM302.559 68.2238C305.054 68.2238 306.894 69.3401 307.778 72.2259C308.799 75.5517 308.904 79.7048 308.904 83.2046C308.904 88.5363 308.655 97.3612 302.559 97.3612C296.394 97.3612 296.421 86.4351 296.421 81.3562C296.421 76.2904 296.758 68.2238 302.559 68.2238ZM127.711 83.4081V85.1514C127.711 88.3065 127.826 90.9625 126.277 93.7695C125.027 96.0513 123.062 97.463 120.856 97.463C117.844 97.463 116.046 95.0138 116.046 91.5141C116.05 84.613 122.028 83.4081 127.711 83.4081ZM230.838 83.4081V85.1514C230.838 88.3065 230.953 90.9625 229.404 93.7695C228.154 96.0513 226.199 97.463 223.983 97.463C220.968 97.463 219.174 95.0138 219.174 91.5141C219.177 84.613 225.148 83.4081 230.838 83.4081Z" fill="#201C1D"/>
<path d="M282.014 106.691V112.532H285.998V106.691H282.014ZM166.491 107.697V149.294H170.168V145.568C170.952 147.044 171.844 148.15 172.926 148.891C174.005 149.633 175.244 150 176.603 150C179.303 150 181.634 148.64 183.65 145.871C185.667 143.103 186.716 139.09 186.716 133.984C186.716 130.642 186.282 127.874 185.389 125.524C184.497 123.181 183.304 121.437 181.813 120.286C180.323 119.136 178.63 118.475 176.809 118.475C175.544 118.462 174.302 118.811 173.234 119.481C172.171 120.151 171.312 121.244 170.475 122.604V107.697H166.491ZM204.285 117.469C201.513 117.469 199.313 118.278 197.748 119.887C196.182 121.492 195.397 123.564 195.397 126.133C195.397 127.625 195.737 128.886 196.316 130.062C196.894 131.238 197.728 132.183 198.767 132.882C199.813 133.582 201.899 134.5 204.997 135.499C207.141 136.179 208.423 136.76 208.982 137.211C209.792 137.872 210.207 138.739 210.207 139.931C210.207 141.311 209.723 142.461 208.776 143.354C207.831 144.253 206.517 144.663 204.791 144.663C203.065 144.663 201.644 144.186 200.604 143.151C199.565 142.116 199.003 140.543 198.767 138.416L194.783 139.222C195.682 145.684 198.95 148.894 204.589 148.891C207.596 148.891 209.897 148.05 211.636 146.274C213.374 144.498 214.29 142.1 214.29 139.222C214.29 137.668 214.012 136.321 213.472 135.193C212.933 134.065 212.191 133.23 211.224 132.576C210.253 131.925 208.089 131.055 204.788 129.959C202.389 129.131 200.983 128.525 200.5 128.147C199.686 127.509 199.274 126.639 199.274 125.53C199.274 124.396 199.653 123.435 200.5 122.71C201.346 121.985 202.65 121.601 204.383 121.601C207.429 121.601 209.132 123.252 209.488 126.536L213.371 125.93C213.103 123.851 212.642 122.211 211.94 121.095C211.237 119.98 210.197 119.039 208.874 118.375C207.553 117.714 206.033 117.469 204.285 117.469ZM228.697 117.469C225.504 117.469 222.811 118.765 220.729 121.498C218.647 124.231 217.663 128.189 217.663 133.385C217.663 138.39 218.666 142.313 220.729 144.969C222.791 147.621 225.465 148.898 228.799 148.898C231.449 148.898 233.646 148.114 235.437 146.48C237.231 144.846 238.532 142.442 239.215 139.228L235.13 138.523C233.956 142.638 231.793 144.659 228.795 144.666C226.887 144.666 225.327 143.866 223.994 142.149C222.66 140.427 221.905 137.875 221.745 134.494H239.314V133.082C239.314 127.999 238.287 124.183 236.248 121.498C234.215 118.813 231.74 117.469 228.697 117.469ZM252.904 117.469C251.95 117.469 251.116 117.788 250.351 118.475C249.587 119.162 248.717 120.586 247.799 122.704V118.069H244.223V148.185H248.207V132.476C248.207 130.284 248.416 128.176 248.923 126.23C249.211 125.115 249.753 124.235 250.456 123.613C251.159 122.991 251.959 122.707 252.806 122.707C253.744 122.707 254.676 123.078 255.666 123.816L256.993 119.081C255.601 117.985 254.238 117.469 252.904 117.469ZM301.726 117.469C298.572 117.469 295.974 118.778 293.963 121.398C291.96 124.015 290.898 127.948 290.898 133.182C290.898 138.374 291.97 142.31 293.963 144.966C295.954 147.618 298.445 148.894 301.52 148.894C304.06 148.894 306.243 147.963 308.057 146.074C309.871 144.186 310.976 141.407 311.427 137.817L307.544 137.211C307.257 139.78 306.577 141.626 305.501 142.851C304.426 144.07 303.132 144.663 301.618 144.663C299.69 144.663 298.049 143.776 296.817 141.942C295.585 140.108 294.98 137.175 294.98 133.079C294.98 129.108 295.63 126.243 296.921 124.415C298.212 122.588 299.857 121.595 301.824 121.595C303.138 121.595 304.259 122.098 305.194 123.107C306.135 124.112 306.76 125.711 307.136 127.741L311.019 126.936C310.551 123.764 309.518 121.369 307.851 119.784C306.184 118.195 304.161 117.469 301.726 117.469ZM324.505 117.469C321.311 117.469 318.618 118.765 316.536 121.498C314.454 124.231 313.47 128.189 313.47 133.385C313.47 138.39 314.473 142.313 316.536 144.969C318.602 147.621 321.272 148.898 324.606 148.898C327.25 148.898 329.45 148.114 331.244 146.48C333.035 144.846 334.336 142.442 335.023 139.228L330.937 138.523C329.764 142.638 327.695 144.659 324.707 144.666C322.798 144.666 321.138 143.866 319.804 142.149C318.471 140.427 317.719 137.875 317.556 134.494H335.124V133.082C335.124 127.999 334.098 124.183 332.058 121.498C330.032 118.813 327.551 117.469 324.505 117.469ZM348.1 117.469C345.322 117.469 343.129 118.278 341.563 119.887C339.994 121.492 339.213 123.564 339.213 126.133C339.213 127.625 339.452 128.886 340.03 130.062C340.605 131.235 341.436 132.183 342.482 132.882C343.521 133.582 345.616 134.5 348.711 135.499C350.849 136.179 352.238 136.76 352.797 137.211C353.608 137.872 354.023 138.739 354.023 139.931C354.023 141.311 353.539 142.461 352.591 143.354C351.65 144.253 350.333 144.663 348.607 144.663C346.878 144.663 345.459 144.186 344.42 143.151C343.38 142.116 342.71 140.543 342.478 138.416L338.494 139.222C339.393 145.684 342.655 148.894 348.3 148.891C351.31 148.891 353.709 148.05 355.451 146.274C357.193 144.498 358.105 142.1 358.105 139.222C358.105 137.668 357.827 136.321 357.288 135.193C356.749 134.065 355.909 133.23 354.938 132.576C353.97 131.925 351.905 131.055 348.603 129.959C346.204 129.131 344.698 128.525 344.211 128.147C343.397 127.509 342.985 126.639 342.985 125.53C342.985 124.396 343.465 123.435 344.312 122.71C345.158 121.985 346.469 121.601 348.195 121.601C351.241 121.601 352.944 123.252 353.3 126.536L357.183 125.93C356.912 123.851 356.458 122.211 355.752 121.095C355.002 119.929 353.941 118.988 352.686 118.375C351.375 117.714 349.846 117.469 348.1 117.469ZM256.99 118.072L265.877 148.189H269.655L278.542 118.072H274.457L269.247 136.505C268.616 138.732 268.06 140.656 267.714 142.245C267.279 140.244 266.864 138.142 266.282 136.102L261.177 118.072H256.99ZM282.014 118.072V148.189H285.998V118.072H282.014ZM151.07 118.475C147.909 118.475 145.366 119.874 143.307 122.604C141.244 125.337 140.14 129.295 140.14 134.491C140.14 139.496 141.159 143.319 143.206 145.971C145.252 148.624 147.974 150 151.276 150C153.897 150 156.038 149.117 157.813 147.483C159.584 145.849 160.81 143.444 161.49 140.231L157.505 139.625C156.345 143.741 154.237 145.762 151.276 145.768C149.383 145.768 147.795 144.969 146.474 143.251C145.154 141.53 144.386 138.977 144.225 135.596H161.588L161.689 134.184C161.689 129.102 160.643 125.185 158.623 122.501C156.603 119.816 154.08 118.475 151.07 118.475ZM106.229 119.181L113.38 149.297H117.567L122.267 126.13L123.084 131.267L126.863 149.297H130.949L138.201 119.181H134.423L130.439 136.605L129.112 142.445L127.886 136.605L124.415 119.181H120.329L116.652 136.808L115.426 143.054L113.995 136.608L110.318 119.184L106.229 119.181ZM360.458 119.484V120.896H364.341V130.968H365.874V120.896H369.757V119.484H360.458ZM371.287 119.484V130.964H372.719V121.195L376.089 130.964H377.52L380.89 121.395V130.964H382.423V119.484H380.279L377.52 127.542C377.242 128.347 377.043 128.931 376.906 129.353L376.291 127.641L373.533 119.484H371.287ZM228.593 121.598C230.577 121.598 232.211 122.546 233.496 124.418C234.378 125.701 234.95 127.654 235.13 130.259H221.954C222.079 127.616 222.837 125.575 224.099 124.012C225.36 122.449 226.811 121.598 228.593 121.598ZM324.403 121.598C326.381 121.598 328.022 122.546 329.306 124.418C330.189 125.701 330.761 127.654 330.94 130.259H317.765C317.889 127.616 318.647 125.575 319.909 124.012C321.167 122.456 322.619 121.598 324.403 121.598ZM151.07 122.707C153.031 122.707 154.606 123.655 155.871 125.527C156.744 126.81 157.326 128.763 157.505 131.367H144.533C144.657 128.724 145.32 126.584 146.575 125.021C147.821 123.461 149.301 122.707 151.07 122.707ZM176.401 122.707C178.172 122.707 179.679 123.677 180.895 125.527C182.111 127.38 182.631 130.236 182.631 134.191C182.631 138.042 182.055 140.914 180.794 142.854C179.532 144.795 178.029 145.775 176.401 145.775C175.204 145.775 174.116 145.378 173.132 144.566C172.145 143.754 171.423 142.59 170.883 141.04C170.344 139.49 170.066 137.104 170.066 133.988C170.066 130.317 170.73 127.567 172.008 125.627C173.286 123.687 174.773 122.707 176.401 122.707Z" fill="black"/>
<path d="M48.6352 90.3486L33.3637 96.8857L47.5069 102.913L63.9066 96.8857L48.6352 90.3486ZM25.6755 98.52L25.1638 127.937L47.5069 137.743V107.201L25.6755 98.52ZM71.5949 98.52L51.4035 106.182V134.984L71.5949 126.813V98.52ZM95.6828 7L80.3064 13.5371L94.5545 19.5644L110.954 13.5371L95.6828 7ZM74.3631 15.6846V45.1017L93.4262 50.6191L94.0429 23.856L74.3631 15.6846ZM117.003 17.3189L98.9628 24.9804V53.8877L117.003 45.7162V17.3189ZM23.4714 48.403L8.19989 54.9401L22.3431 60.9674L38.7428 54.9401L23.4714 48.403ZM0.511673 56.5744L0 85.9916L22.3431 95.7973V65.2558L0.511673 56.5744ZM46.431 56.5744L26.2396 64.236V93.0386L46.431 84.8672V56.5744ZM72.6707 47.3178L57.3992 53.855L71.5424 59.8822L87.9422 53.855L72.6707 47.3178ZM49.711 55.4893L49.1993 84.9064L71.5424 94.7121V64.1739L49.711 55.4893ZM95.6304 55.4893L75.439 63.1508V91.9534L95.6304 83.782V55.4893ZM143.737 7L128.466 13.5371L142.609 19.5644L159.009 13.5371L143.737 7ZM120.778 15.1714L120.266 44.5886L142.609 54.3943V23.856L120.778 15.1714ZM166.697 15.1714L146.506 22.833V51.6356L166.697 43.4642V15.1714Z" fill="#F7A80D"/>
</g>
<defs>
<clipPath id="clip0_5_183">
<rect width="500" height="150" fill="white"/>
</clipPath>
</defs>
</svg>
