<svg width="580" height="233" viewBox="0 0 580 233" fill="none" xmlns="http://www.w3.org/2000/svg">
<rect width="500" height="150" transform="translate(40 41)" fill="white"/>
<path fill-rule="evenodd" clip-rule="evenodd" d="M40 193L51.6834 86.75H73.5075C82.2764 86.75 88.9397 89.2107 93.4824 94.1237C98.0301 99.041 100.302 106.24 100.302 115.735C100.302 122.314 99.1382 127.558 96.8191 131.456C94.4975 135.353 91.1307 137.691 86.7186 138.468C90.5276 139.437 93.5226 141.851 95.7035 145.719C97.8819 149.586 98.9698 154.393 98.9698 160.148C98.9698 170.305 96.5226 178.312 91.6307 184.185C86.7362 190.059 80.0176 193 71.4698 193H40ZM65.1256 167.5H66.8141C70.8643 167.5 73.691 166.79 75.2889 165.375C76.8869 163.96 77.6884 161.55 77.6884 158.167C77.6884 155.536 77.1307 153.598 76.0201 152.361C74.907 151.12 73.1508 150.5 70.7437 150.5H66.995L65.1256 167.5ZM474.533 185.541L505.957 86.75H531.56L540 193H516.967L516.525 178.882H500.96L497.425 193H451.749L442.188 146.48L437.088 193H414.372L425.945 86.75H448.704L443.947 129.862L460.706 86.75H487.236L463.538 140.385L474.533 185.541ZM70.1508 125L71.7261 112.25H74.8342C76.5176 112.25 77.8317 112.777 78.7789 113.831C79.7261 114.881 80.201 116.317 80.201 118.145C80.201 120.525 79.4874 122.259 78.0578 123.355C76.6332 124.452 74.3869 125 71.3241 125H70.1508ZM102.814 193L114.528 86.75H137.558L133.568 123.457H146.058L150.09 86.75H173.166L161.367 193H138.337L142.631 154.809H130.095L125.804 193H102.814ZM173.166 193L184.947 86.75H208.342L196.6 193H173.166ZM208.342 193L220.06 86.75H243.362L250.653 120.495C250.771 121.031 250.942 121.855 251.173 122.968C252.796 130.321 253.922 136.683 254.56 142.051L260.676 86.75H283.719L271.96 193H248.698L236.94 138.133C236.822 143.118 236.173 151.197 234.985 162.379L234.899 163.246L231.646 193H208.342ZM283.719 193L295.437 86.75H318.739L326.03 120.495C326.146 121.031 326.322 121.855 326.555 122.968C328.171 130.321 329.299 136.683 329.935 142.051L336.055 86.75H359.095L347.337 193H324.078L312.317 138.133C312.198 143.118 311.55 151.197 310.364 162.379L310.276 163.246L307.025 193H283.719ZM359.095 193L370.809 86.75H414.372L411.246 115.578H390.55L389.377 125.833H408.864L405.912 152.727H386.472L385.216 164.172H407.779L404.606 193H359.095ZM507.337 154.75H514.874L514.636 142.99C514.601 142.069 514.574 141.146 514.555 140.224C514.438 136.281 514.371 132.335 514.354 128.387C514.354 126.39 514.359 124.856 514.374 123.785C514.387 122.705 514.407 121.694 514.435 120.75C513.967 123.598 513.471 126.432 512.945 129.25C512.486 131.698 512.001 134.131 511.487 136.547L507.337 154.75Z" fill="#ED1C24"/>
<path fill-rule="evenodd" clip-rule="evenodd" d="M188.264 51.3475L243.518 40L185.729 74L188.264 51.3475Z" fill="#FFCA04"/>
<rect x="40" y="5" width="48.2344" height="30" rx="3" fill="white"/>
<rect x="40.5" y="5.5" width="47.2344" height="29" rx="2.5" stroke="black" stroke-opacity="0.2"/>
<path d="M49.1094 23.125C48.6094 23.125 48.168 22.9987 47.7852 22.7461C47.4023 22.4909 47.1029 22.1315 46.8867 21.668C46.6706 21.2018 46.5625 20.651 46.5625 20.0156C46.5625 19.3854 46.6706 18.8385 46.8867 18.375C47.1029 17.9115 47.4036 17.5534 47.7891 17.3008C48.1745 17.0482 48.6198 16.9219 49.125 16.9219C49.5156 16.9219 49.8242 16.987 50.0508 17.1172C50.2799 17.2448 50.4544 17.3906 50.5742 17.5547C50.6966 17.7161 50.7917 17.849 50.8594 17.9531H50.9375V15H51.8594V23H50.9688V22.0781H50.8594C50.7917 22.1875 50.6953 22.3255 50.5703 22.4922C50.4453 22.6562 50.2669 22.8034 50.0352 22.9336C49.8034 23.0612 49.4948 23.125 49.1094 23.125ZM49.2344 22.2969C49.6042 22.2969 49.9167 22.2005 50.1719 22.0078C50.4271 21.8125 50.6211 21.543 50.7539 21.1992C50.8867 20.8529 50.9531 20.4531 50.9531 20C50.9531 19.5521 50.888 19.1602 50.7578 18.8242C50.6276 18.4857 50.4349 18.2227 50.1797 18.0352C49.9245 17.8451 49.6094 17.75 49.2344 17.75C48.8438 17.75 48.5182 17.8503 48.2578 18.0508C48 18.2487 47.806 18.5182 47.6758 18.8594C47.5482 19.1979 47.4844 19.5781 47.4844 20C47.4844 20.4271 47.5495 20.8151 47.6797 21.1641C47.8125 21.5104 48.0078 21.7865 48.2656 21.9922C48.526 22.1953 48.849 22.2969 49.2344 22.2969ZM56.1914 23.125C55.6133 23.125 55.1146 22.9974 54.6953 22.7422C54.2786 22.4844 53.957 22.125 53.7305 21.6641C53.5065 21.2005 53.3945 20.6615 53.3945 20.0469C53.3945 19.4323 53.5065 18.8906 53.7305 18.4219C53.957 17.9505 54.2721 17.5833 54.6758 17.3203C55.082 17.0547 55.556 16.9219 56.0977 16.9219C56.4102 16.9219 56.7188 16.974 57.0234 17.0781C57.3281 17.1823 57.6055 17.3516 57.8555 17.5859C58.1055 17.8177 58.3047 18.125 58.4531 18.5078C58.6016 18.8906 58.6758 19.362 58.6758 19.9219V20.3125H54.0508V19.5156H57.7383C57.7383 19.1771 57.6706 18.875 57.5352 18.6094C57.4023 18.3437 57.2122 18.1341 56.9648 17.9805C56.7201 17.8268 56.431 17.75 56.0977 17.75C55.7305 17.75 55.4128 17.8411 55.1445 18.0234C54.8789 18.2031 54.6745 18.4375 54.5313 18.7266C54.388 19.0156 54.3164 19.3255 54.3164 19.6562V20.1875C54.3164 20.6406 54.3945 21.0247 54.5508 21.3398C54.7096 21.6523 54.9297 21.8906 55.2109 22.0547C55.4922 22.2161 55.819 22.2969 56.1914 22.2969C56.4336 22.2969 56.6523 22.263 56.8477 22.1953C57.0456 22.125 57.2161 22.0208 57.3594 21.8828C57.5026 21.7422 57.6133 21.5677 57.6914 21.3594L58.582 21.6094C58.4883 21.9115 58.3307 22.1771 58.1094 22.4062C57.888 22.6328 57.6146 22.8099 57.2891 22.9375C56.9635 23.0625 56.5977 23.125 56.1914 23.125ZM62.75 17V17.7812H59.5156V17H62.75ZM60.4844 23V16.1719C60.4844 15.8281 60.5651 15.5417 60.7266 15.3125C60.888 15.0833 61.0977 14.9115 61.3555 14.7969C61.6133 14.6823 61.8854 14.625 62.1719 14.625C62.3984 14.625 62.5833 14.6432 62.7266 14.6797C62.8698 14.7161 62.9766 14.75 63.0469 14.7812L62.7813 15.5781C62.7344 15.5625 62.6693 15.543 62.5859 15.5195C62.5052 15.4961 62.3984 15.4844 62.2656 15.4844C61.9609 15.4844 61.7409 15.5612 61.6055 15.7148C61.4727 15.8685 61.4063 16.0937 61.4063 16.3906V23H60.4844ZM65.6357 23.1406C65.2555 23.1406 64.9105 23.069 64.6006 22.9258C64.2907 22.7799 64.0446 22.5703 63.8623 22.2969C63.68 22.0208 63.5889 21.6875 63.5889 21.2969C63.5889 20.9531 63.6566 20.6745 63.792 20.4609C63.9274 20.2448 64.1084 20.0755 64.335 19.9531C64.5615 19.8307 64.8115 19.7396 65.085 19.6797C65.361 19.6172 65.6383 19.5677 65.917 19.5313C66.2816 19.4844 66.5771 19.4492 66.8037 19.4258C67.0329 19.3997 67.1995 19.3568 67.3037 19.2969C67.4105 19.237 67.4639 19.1328 67.4639 18.9844V18.9531C67.4639 18.5677 67.3584 18.2682 67.1475 18.0547C66.9391 17.8411 66.6227 17.7344 66.1982 17.7344C65.7581 17.7344 65.4131 17.8307 65.1631 18.0234C64.9131 18.2161 64.7373 18.4219 64.6357 18.6406L63.7607 18.3281C63.917 17.9635 64.1253 17.6797 64.3857 17.4766C64.6488 17.2708 64.9352 17.1276 65.2451 17.0469C65.5576 16.9635 65.8649 16.9219 66.167 16.9219C66.3597 16.9219 66.5811 16.9453 66.8311 16.9922C67.0837 17.0365 67.3271 17.1289 67.5615 17.2695C67.7985 17.4102 67.9951 17.6224 68.1514 17.9062C68.3076 18.1901 68.3857 18.5703 68.3857 19.0469V23H67.4639V22.1875H67.417C67.3545 22.3177 67.2503 22.457 67.1045 22.6055C66.9587 22.7539 66.7646 22.8802 66.5225 22.9844C66.2803 23.0885 65.9847 23.1406 65.6357 23.1406ZM65.7764 22.3125C66.141 22.3125 66.4482 22.2409 66.6982 22.0977C66.9508 21.9544 67.141 21.7695 67.2686 21.543C67.3988 21.3164 67.4639 21.0781 67.4639 20.8281V19.9844C67.4248 20.0312 67.3389 20.0742 67.2061 20.1133C67.0758 20.1497 66.9248 20.1823 66.7529 20.2109C66.5837 20.237 66.4183 20.2604 66.2568 20.2812C66.098 20.2995 65.9691 20.3151 65.8701 20.3281C65.6305 20.3594 65.4066 20.4102 65.1982 20.4805C64.9925 20.5482 64.8258 20.651 64.6982 20.7891C64.5732 20.9245 64.5107 21.1094 64.5107 21.3437C64.5107 21.6641 64.6292 21.9062 64.8662 22.0703C65.1058 22.2318 65.4092 22.3125 65.7764 22.3125ZM73.8496 20.5469V17H74.7715V23H73.8496V21.9844H73.7871C73.6465 22.2891 73.4277 22.5482 73.1309 22.7617C72.834 22.9727 72.459 23.0781 72.0059 23.0781C71.6309 23.0781 71.2975 22.9961 71.0059 22.832C70.7142 22.6654 70.485 22.4154 70.3184 22.082C70.1517 21.7461 70.0684 21.3229 70.0684 20.8125V17H70.9902V20.75C70.9902 21.1875 71.1126 21.5365 71.3574 21.7969C71.6048 22.0573 71.9199 22.1875 72.3027 22.1875C72.5319 22.1875 72.765 22.1289 73.002 22.0117C73.2415 21.8945 73.4421 21.7148 73.6035 21.4727C73.7676 21.2305 73.8496 20.9219 73.8496 20.5469ZM77.3818 15V23H76.46V15H77.3818ZM81.6797 17V17.7812H78.5703V17H81.6797ZM79.4766 15.5625H80.3984V21.2812C80.3984 21.5417 80.4362 21.737 80.5117 21.8672C80.5898 21.9948 80.6888 22.0807 80.8086 22.125C80.931 22.1667 81.0599 22.1875 81.1953 22.1875C81.2969 22.1875 81.3802 22.1823 81.4453 22.1719C81.5104 22.1589 81.5625 22.1484 81.6016 22.1406L81.7891 22.9687C81.7266 22.9922 81.6393 23.0156 81.5273 23.0391C81.4154 23.0651 81.2734 23.0781 81.1016 23.0781C80.8411 23.0781 80.5859 23.0221 80.3359 22.9102C80.0885 22.7982 79.8828 22.6276 79.7187 22.3984C79.5573 22.1693 79.4766 21.8802 79.4766 21.5312V15.5625Z" fill="black"/>
</svg>
