<svg width="500" height="150" viewBox="0 0 500 150" fill="none" xmlns="http://www.w3.org/2000/svg">
<g clip-path="url(#clip0_5_67)">
<rect width="500" height="150" fill="white"/>
<path fill-rule="evenodd" clip-rule="evenodd" d="M198.482 111.234C207.832 111.904 218.728 104.64 222.566 100.493C235.91 86.0548 236.232 65.177 222.798 50.0564C217.801 44.428 206.055 38.2072 198.623 39.083H171.718V111.144L198.546 111.234H198.482ZM186.89 95.6243V54.6029C191.101 54.3266 195.326 54.3266 199.538 54.6029C202.851 54.9871 206.012 56.2107 208.721 58.1576C224.176 68.7189 217.737 93.8985 199.28 95.5857C195.156 95.8757 191.016 95.8886 186.89 95.6243Z" fill="#008CEB"/>
<path fill-rule="evenodd" clip-rule="evenodd" d="M434.68 111.418H450.02V95.8851H480.454L480.545 111.341H495.884V85.736C495.884 78.0083 496.528 68.3743 494.596 61.3807C492.841 54.9783 489.041 49.3255 483.774 45.2847C478.506 41.2439 472.062 39.0369 465.424 39.0005C458.785 38.964 452.317 41.1 447.006 45.0826C441.695 49.0653 437.832 54.6759 436.007 61.0587C433.946 67.9622 434.642 77.8666 434.642 85.53C434.642 94.185 434.552 102.892 434.642 111.547L434.68 111.418ZM450.033 80.2622C449.943 73.8224 449.26 66.9318 452.287 61.9732C453.615 59.6903 455.525 57.8 457.821 56.4946C460.117 55.1893 462.718 54.5154 465.359 54.5417C467.987 54.5611 470.565 55.262 472.84 56.5758C475.116 57.8897 477.012 59.7716 478.342 62.0376C481.33 67.1894 480.622 73.6292 480.545 80.2751L450.033 80.2622Z" fill="#008CEB"/>
<path fill-rule="evenodd" clip-rule="evenodd" d="M259.26 111.473H274.549C274.549 108.227 274.136 98.2972 274.69 95.9403H305.009L305.112 111.46H320.426C320.348 102.857 320.426 94.2659 320.426 85.701C320.426 78.3596 321.108 67.8499 319.138 61.3328C317.372 54.9387 313.565 49.2966 308.297 45.2652C303.029 41.2338 296.589 39.0339 289.955 39.0004C283.322 38.9669 276.859 41.1015 271.551 45.0794C266.242 49.0573 262.379 54.6607 260.548 61.0366C258.501 67.734 259.196 77.9733 259.196 85.4305C259.196 94.0341 259.003 102.857 259.196 111.434L259.26 111.473ZM274.561 80.3302C274.458 73.8904 273.802 66.9097 276.828 62.0541C278.156 59.7771 280.058 57.888 282.344 56.575C284.63 55.2621 287.22 54.5711 289.856 54.5711C292.492 54.5711 295.082 55.2621 297.368 56.575C299.654 57.888 301.555 59.7771 302.884 62.0541C305.885 67.2059 305.163 73.7488 305.112 80.3045L274.561 80.3302Z" fill="#008CEB"/>
<path fill-rule="evenodd" clip-rule="evenodd" d="M347.331 67.2979L347.112 78.0266C347.112 87.0423 346.674 103.876 347.112 111.204H362.104C362.452 106.053 361.563 69.4616 362.503 68.2896C362.503 61.1801 369.935 54.56 377.431 54.5342C381.327 54.5107 385.079 56.0078 387.889 58.7072C389.795 60.4459 392.719 64.4128 392.667 68.4184C393.363 68.8177 392.809 107.057 393.028 111.295H408.032L407.916 67.5683C408.29 64.1424 406.229 58.8489 404.903 56.1699C402.443 51.0655 398.602 46.7518 393.817 43.7175C389.032 40.6832 383.492 39.0494 377.826 39.0011C372.16 38.9528 366.593 40.4921 361.757 43.4445C356.921 46.3968 353.007 50.6444 350.461 55.7062C349.173 58.3466 347.009 63.7817 347.331 67.2979Z" fill="#008CEB"/>
<path d="M74.3354 145.671C113.181 145.671 144.671 114.181 144.671 75.3354C144.671 36.4902 113.181 5 74.3354 5C35.4902 5 4 36.4902 4 75.3354C4 114.181 35.4902 145.671 74.3354 145.671Z" fill="#008CEB"/>
<path d="M115.318 76.1402V95.9361C115.318 97.2241 114.764 97.4946 113.683 96.8635C112.235 95.995 110.729 95.229 109.175 94.5709C104.481 92.7008 99.3959 92.0238 94.376 92.6003C88.897 93.3111 83.5198 94.6597 78.3538 96.6187C73.202 98.3575 68.1532 100.238 62.8983 101.693C58.5459 102.986 54.0164 103.581 49.4778 103.458C44.4479 103.263 39.5596 101.738 35.3103 99.0401C34.7764 98.7185 34.3383 98.2599 34.0416 97.7118C33.7449 97.1637 33.6004 96.5461 33.623 95.9232C33.623 82.9578 33.623 69.9924 33.623 57.0269C33.623 56.3958 33.623 55.6488 34.1897 55.3268C34.7564 55.0048 35.336 55.5329 35.8254 55.8549C40.4398 58.9749 45.9049 60.5942 51.4741 60.4915C55.4563 60.3282 59.3945 59.5952 63.1688 58.3149C68.5267 56.6534 73.7043 54.451 78.972 52.5835C83.0726 51.0076 87.2771 49.7166 91.5554 48.7196C95.2272 47.8597 99.0373 47.7694 102.746 48.4544C106.454 49.1393 109.981 50.5846 113.103 52.6994C113.819 53.138 114.405 53.7593 114.801 54.4995C115.197 55.2397 115.389 56.0721 115.357 56.911C115.357 63.3508 115.357 69.7906 115.357 76.2304L115.318 76.1402Z" fill="#FEFEFE"/>
</g>
<defs>
<clipPath id="clip0_5_67">
<rect width="500" height="150" fill="white"/>
</clipPath>
</defs>
</svg>
