<svg width="500" height="150" viewBox="0 0 500 150" fill="none" xmlns="http://www.w3.org/2000/svg">
<path d="M280.913 68.104C280.913 57.2771 273.355 49.1998 261.627 49.1998C249.856 49.1998 242.298 57.2771 242.298 68.104C242.298 78.931 249.856 87.009 261.627 87.009C273.399 87.009 280.913 78.931 280.913 68.104ZM223.576 68.104C223.576 48.2116 239.561 32.8303 261.801 32.8303C284.171 32.8303 300.025 48.2116 300.025 68.104C300.025 87.997 284.171 103.378 261.801 103.378C239.561 103.378 223.576 87.997 223.576 68.104ZM293.51 117.943H303.761C309.277 117.943 311.189 115.924 311.189 111.155V32.9592H330.127V111.155C330.127 127.653 323.351 134.699 305.325 134.699H293.553V117.685L293.51 117.943ZM193.171 71.971C193.171 80.22 184.657 86.794 173.885 86.794C161.679 86.794 154.077 79.705 154.077 67.889C154.077 56.9764 162.2 49.5005 174.667 49.5005C184.57 49.5005 193.214 56.3319 193.214 64.066V71.928L193.171 71.971ZM193.944 33.0021V40.8647H193.683C188.775 35.7948 180.696 33.0021 171.053 33.0021C150.333 33.0021 135 48.2116 135 67.889C135 88.298 150.724 103.292 171.661 103.292C181.043 103.292 188.905 100.371 193.683 95.172H193.944V101.96C193.944 111.069 185.951 117.814 175.396 117.814C164.754 117.814 158.543 114.858 153.2 109.78L140.864 121.466C149.117 130.102 161.583 135 175.787 135C197.419 135 212.187 120.693 212.187 101.702V32.9592H193.9L193.944 33.0021ZM378.551 48.1257C388.628 48.1257 395.665 53.2814 396.577 61.101H360.264C361.289 53.2814 368.343 48.1257 378.551 48.1257ZM380.505 88.469C369.168 88.469 360.264 81.251 360.003 74.248H415.168V68.963C415.168 48.942 401.094 33.0451 378.333 33.0451C356.832 33.0451 341.499 47.9108 341.499 68.448C341.499 89.629 357.701 103.593 381.461 103.593C396.056 103.593 406.48 96.719 411.953 90.102L399.14 81.251C393.449 86.493 388.28 88.469 380.679 88.469M426.288 15H444.575L444.674 61.402H444.922L475.502 33.131H500L468.291 62.691L499.87 103.808H478.021L456.346 74.076H456.098L444.588 84.817V103.851H426.301L426.288 15Z" fill="black"/>
<path d="M37 77C37 64.843 46.6238 55 58.5 55C70.376 55 80 64.843 80 77C80 89.157 70.376 99 58.5 99C46.6238 99 37 89.157 37 77Z" fill="#00AA13"/>
<path d="M58 19.0083C25.9757 19.0083 0 44.8841 0 76.648C0 100.617 14.5 121.019 35.5871 130.142C37.071 130.77 38.676 131.06 40.2856 130.99C41.8952 130.92 43.4692 130.492 44.8932 129.738C46.3172 128.984 47.5555 127.921 48.5184 126.629C49.4813 125.336 50.1445 123.844 50.46 122.263C50.9583 119.802 50.586 117.243 49.4069 115.027C48.2278 112.81 46.3154 111.073 43.9971 110.113C30.9471 104.639 21.75 91.78 21.75 76.769C21.75 56.7812 37.99 40.6088 58 40.6088C78.01 40.6088 94.25 56.7812 94.25 76.769C94.25 91.78 85.053 104.635 72.003 110.109V110.117C69.665 111.062 67.73 112.795 66.533 115.017C65.336 117.238 64.953 119.809 65.45 122.284C65.946 124.758 67.291 126.981 69.252 128.569C71.212 130.156 73.666 131.007 76.187 130.975C77.623 130.964 79.043 130.678 80.371 130.133C101.459 121.218 116 100.774 116 76.64C116 44.7099 90.024 19 58 19" fill="#00AA13"/>
</svg>
