<svg width="500" height="150" viewBox="0 0 500 150" fill="none" xmlns="http://www.w3.org/2000/svg">
<g clip-path="url(#clip0_5_191)">
<g clip-path="url(#clip1_5_191)">
<path fill-rule="evenodd" clip-rule="evenodd" d="M168.478 43.4143H180.951C181.901 43.4143 182.631 44.1851 182.495 45.0455L176.702 81.8376C176.479 83.2537 177.679 84.5217 179.242 84.5217H201.124C201.746 84.5217 202.222 85.0272 202.132 85.5896L200.434 96.1569C200.346 96.7059 199.831 97.1135 199.224 97.1135H174.482C167.122 97.1135 160.064 91.5872 161.102 84.9159L166.932 44.6547C167.034 43.9449 167.695 43.4143 168.478 43.4143Z" fill="#E82529"/>
<path fill-rule="evenodd" clip-rule="evenodd" d="M210.072 58.095L204.362 95.6169C204.272 96.212 204.776 96.7434 205.433 96.7434H217.503C218.362 96.7434 219.089 96.1642 219.208 95.3859L224.862 58.4741C224.983 57.6238 224.26 56.8697 223.323 56.8697H211.61C210.834 56.8697 210.179 57.3928 210.072 58.095Z" fill="#E82529"/>
<path fill-rule="evenodd" clip-rule="evenodd" d="M234.97 93.8664C231.245 93.7433 229.503 94.8121 227.305 96.0123C227.836 92.6293 231.994 66.2664 232.373 64.6469C232.775 62.9203 233.14 60.0396 234.798 58.5866C236.741 56.8809 239.75 55.905 254.718 55.8607C269.998 55.8155 272.958 65.8831 272.147 72.4247C271.456 78.0238 269.182 91.8577 268.541 95.7227C268.443 96.3102 267.894 96.7429 267.248 96.7429H255.445C254.58 96.7429 253.916 96.0449 254.036 95.2615C254.633 91.3965 256.234 81.0929 256.777 78.1008C257.451 74.3998 257.99 70.3273 256.911 68.7195C255.833 67.1151 252.597 65.8831 246.396 66.8707L241.809 96.5596C241.809 96.5596 238.859 93.9952 234.97 93.8664Z" fill="#E82529"/>
<path fill-rule="evenodd" clip-rule="evenodd" d="M284.948 41.2829H298.041C298.528 41.2829 298.903 41.6771 298.836 42.119L290.689 96.1522C290.629 96.5531 290.254 96.8518 289.811 96.8518H276.885C276.347 96.8518 275.934 96.4175 276.008 95.9304L284.153 41.9181C284.207 41.5541 284.547 41.2829 284.948 41.2829Z" fill="#E82529"/>
<path fill-rule="evenodd" clip-rule="evenodd" d="M295.079 73.8387L309.876 57.9744C310.342 57.4747 311.024 57.1868 311.742 57.1868H324.732C325.67 57.1868 326.163 58.2037 325.536 58.8406L310.407 74.2128L324.237 101.445C324.745 102.445 323.947 103.588 322.744 103.588H311.004C310.39 103.588 309.834 103.261 309.578 102.751L295.079 73.8387Z" fill="#E82529"/>
<path fill-rule="evenodd" clip-rule="evenodd" d="M227.392 46.7093C226.333 50.7978 222.312 53.8401 218.101 53.8401C213.891 53.8401 210.662 50.5258 211.722 46.4381C212.781 42.3497 216.266 39.0354 221.262 39.0354C225.472 39.0354 228.45 42.6208 227.392 46.7093Z" fill="#E82529"/>
<path fill-rule="evenodd" clip-rule="evenodd" d="M429.873 44.6739C428.814 48.7624 424.793 51.8047 420.582 51.8047C416.372 51.8047 413.144 48.4904 414.203 44.4027C415.262 40.3143 418.747 37 423.743 37C427.953 37 430.931 40.5854 429.873 44.6739Z" fill="#E82529"/>
<path fill-rule="evenodd" clip-rule="evenodd" d="M494.184 89.5804C493.292 93.6204 489.229 96.6258 484.802 96.6233C480.375 96.6217 476.802 93.3442 477.694 89.3051C478.586 85.2652 482.072 81.991 487.325 81.9935C491.751 81.996 495.077 85.5405 494.184 89.5804Z" fill="#E82529"/>
<path fill-rule="evenodd" clip-rule="evenodd" d="M375.709 75.3443H367.782C367.488 75.3443 367.286 75.0731 367.394 74.8221L374.292 58.7912C374.424 58.4857 374.915 58.551 374.947 58.8774L376.498 74.5534C376.54 74.9777 376.175 75.3443 375.709 75.3443ZM394.912 95.4754L386.066 47.0029C385.68 44.8837 383.676 43.3312 381.329 43.3312H372.454C369.747 43.3312 367.29 44.7783 366.169 47.0338L342.341 95.5356C341.996 96.2395 342.56 97.0337 343.402 97.0296L355.783 96.9634C356.63 96.9592 357.393 96.4939 357.724 95.7808L361.839 86.9168C361.951 86.6749 362.21 86.5184 362.497 86.5184H377.48C377.847 86.5184 378.155 86.7736 378.191 87.1084L379.085 95.4963C379.188 96.4722 380.085 97.217 381.156 97.217H393.3C394.31 97.217 395.078 96.3868 394.912 95.4754Z" fill="#E82529"/>
<path fill-rule="evenodd" clip-rule="evenodd" d="M395.066 102.487L397.925 110.574C398.439 111.905 398.827 112.2 399.831 112.006C403.443 111.309 412.171 108.948 416.441 103.659C422.007 96.7644 422.77 84.5751 423.753 78.38C424.562 73.2772 426.334 60.7163 426.933 56.4471C427.041 55.6788 426.388 55 425.541 55H414.442C413.461 55 412.632 55.6629 412.501 56.5525C411.606 62.5827 408.382 84.2671 407.819 87.2726C407.165 90.7702 407.034 95.8077 401.383 98.8149C398.562 100.315 397.116 100.601 396 101.078C395.432 101.321 394.791 101.581 395.066 102.487Z" fill="#E82529"/>
<path fill-rule="evenodd" clip-rule="evenodd" d="M458.706 83.6407C458.706 83.6407 452.918 85.4426 450.14 83.5344C447.361 81.627 447.13 77.7059 448.751 72.0892C450.371 66.4716 454.423 65.5183 456.159 65.412C457.896 65.3057 461.16 66.0582 461.16 66.0582L458.706 83.6407ZM474.732 56.2768C470.989 55.4198 464.697 53.5366 454.582 54.2154C445.249 54.8414 434.711 58.7935 432.737 75.6604C430.764 92.5274 439.186 95.7806 451.292 96.2627C460.164 96.6159 467.127 94.3812 470.215 93.1618C471.29 92.7375 472.039 91.8277 472.196 90.7656L476.669 58.2913C476.845 57.0024 476.141 56.599 474.732 56.2768Z" fill="#E82529"/>
<path fill-rule="evenodd" clip-rule="evenodd" d="M481.859 78.1442L485.116 47.0475C485.233 45.9336 486.254 45.4791 487.476 45.4791H498.712C499.759 45.4791 500.202 46.2064 499.914 47.3974L493.056 78.5359C492.917 79.1385 492.337 79.5695 491.664 79.5695H483.273C482.435 79.5695 481.778 78.9083 481.859 78.1442Z" fill="#E82529"/>
<g clip-path="url(#clip2_5_191)">
<mask id="mask0_5_191" style="mask-type:luminance" maskUnits="userSpaceOnUse" x="0" y="0" width="150" height="150">
<path d="M0 0.517242H149.484V149.485H0V0.517242Z" fill="white"/>
</mask>
<g mask="url(#mask0_5_191)">
<path fill-rule="evenodd" clip-rule="evenodd" d="M135.448 149.485H14.0351C6.31606 149.485 -3.05176e-05 143.192 -3.05176e-05 135.499V14.504C-3.05176e-05 6.81155 6.31606 0.517242 14.0351 0.517242H135.448C143.168 0.517242 149.484 6.81155 149.484 14.504V135.499C149.484 143.192 143.168 149.485 135.448 149.485Z" fill="#E82529"/>
</g>
<path fill-rule="evenodd" clip-rule="evenodd" d="M32.2513 28.5681H39.3335C39.8727 28.5681 40.2869 29.0445 40.2101 29.5762L36.921 52.3141C36.7944 53.1893 37.4759 53.9729 38.3629 53.9729H50.7869C51.1399 53.9729 51.4103 54.2854 51.3589 54.6329L50.3951 61.1636C50.3452 61.5029 50.053 61.7548 49.7084 61.7548H35.6603C31.4816 61.7548 27.4741 58.3395 28.0637 54.2166L31.3736 29.3347C31.4317 28.896 31.807 28.5681 32.2513 28.5681Z" fill="#FEFEFE"/>
<path fill-rule="evenodd" clip-rule="evenodd" d="M55.8672 37.6409L52.6254 60.8299C52.574 61.1977 52.8605 61.5261 53.2331 61.5261H60.0864C60.5738 61.5261 60.987 61.1682 61.0544 60.6871L64.2646 37.8752C64.3331 37.3497 63.9226 36.8837 63.3906 36.8837H56.7402C56.3001 36.8837 55.928 37.207 55.8672 37.6409Z" fill="#FEFEFE"/>
<path fill-rule="evenodd" clip-rule="evenodd" d="M70.0034 59.7481C67.8888 59.672 66.8995 60.3325 65.6518 61.0743C65.9528 58.9836 68.3139 42.691 68.5293 41.6901C68.7572 40.6231 68.9643 38.8427 69.9058 37.9448C71.0092 36.8907 72.7174 36.2875 81.216 36.2601C89.8911 36.2322 91.5717 42.4541 91.1113 46.4969C90.7189 49.9572 89.4281 58.5067 89.0637 60.8953C89.0082 61.2584 88.6968 61.5258 88.3298 61.5258H81.6286C81.1376 61.5258 80.7603 61.0944 80.8288 60.6103C81.1677 58.2217 82.0765 51.8539 82.3848 50.0048C82.7674 47.7175 83.0736 45.2007 82.4611 44.207C81.8487 43.2155 80.0113 42.4541 76.4907 43.0644L73.8867 61.4126C73.8867 61.4126 72.2113 59.8277 70.0034 59.7481Z" fill="#FEFEFE"/>
<path fill-rule="evenodd" clip-rule="evenodd" d="M98.3792 27.2509H105.813C106.089 27.2509 106.302 27.4945 106.264 27.7676L101.639 61.1607C101.604 61.4085 101.392 61.5932 101.14 61.5932H93.8014C93.4962 61.5932 93.2616 61.3247 93.3036 61.0237L97.9277 27.6435C97.9588 27.4185 98.1514 27.2509 98.3792 27.2509Z" fill="#FEFEFE"/>
<path fill-rule="evenodd" clip-rule="evenodd" d="M104.131 47.3707L112.532 37.5664C112.797 37.2576 113.184 37.0797 113.592 37.0797H120.967C121.5 37.0797 121.78 37.7081 121.424 38.1017L112.834 47.6019L120.686 64.4319C120.974 65.0495 120.522 65.7561 119.839 65.7561H113.173C112.825 65.7561 112.509 65.5538 112.363 65.2388L104.131 47.3707Z" fill="#FEFEFE"/>
<path fill-rule="evenodd" clip-rule="evenodd" d="M65.7007 30.6045C65.0997 33.1312 62.8165 35.0114 60.4258 35.0114C58.0357 35.0114 56.2025 32.9631 56.804 30.4369C57.405 27.9102 59.3841 25.8619 62.2206 25.8619C64.6108 25.8619 66.3018 28.0778 65.7007 30.6045Z" fill="#FEFEFE"/>
<path fill-rule="evenodd" clip-rule="evenodd" d="M73.2566 67.437C72.6555 69.9637 70.3723 71.8439 67.9817 71.8439C65.5915 71.8439 63.7583 69.7956 64.3599 67.2694C64.9609 64.7427 66.94 62.6944 69.7765 62.6944C72.1666 62.6944 73.8576 64.9103 73.2566 67.437Z" fill="#FEFEFE"/>
<path fill-rule="evenodd" clip-rule="evenodd" d="M109.214 97.6315C108.708 100.128 106.401 101.986 103.888 101.984C101.374 101.983 99.3451 99.9575 99.8516 97.4613C100.358 94.9646 102.337 92.9411 105.32 92.9427C107.833 92.9442 109.721 95.1348 109.214 97.6315Z" fill="#FEFEFE"/>
<path fill-rule="evenodd" clip-rule="evenodd" d="M45.9404 85.1959H41.4399C41.2727 85.1959 41.158 85.0283 41.2193 84.8732L45.1359 74.9659C45.2106 74.7771 45.4899 74.8175 45.508 75.0192L46.3883 84.7071C46.4122 84.9694 46.2051 85.1959 45.9404 85.1959ZM56.8432 97.6371L51.821 67.6806C51.6015 66.3709 50.4637 65.4114 49.1314 65.4114H44.0921C42.5553 65.4114 41.1601 66.3057 40.5238 67.6997L26.9952 97.6744C26.799 98.1094 27.1198 98.6002 27.5978 98.5976L34.6271 98.5568C35.1082 98.5542 35.5411 98.2666 35.729 97.8259L38.0656 92.3478C38.129 92.1983 38.2759 92.1016 38.4388 92.1016H46.9458C47.1544 92.1016 47.3293 92.2594 47.3496 92.4663L47.8572 97.6501C47.9158 98.2532 48.425 98.7135 49.0333 98.7135H55.9281C56.5016 98.7135 56.9376 98.2004 56.8432 97.6371Z" fill="#FEFEFE"/>
<path fill-rule="evenodd" clip-rule="evenodd" d="M53.4898 103.063L55.1133 108.062C55.405 108.884 55.6251 109.067 56.1955 108.947C58.2462 108.516 63.2014 107.057 65.6258 103.788C68.7862 99.5271 69.2196 91.994 69.7775 88.1654C70.2369 85.0118 71.2427 77.249 71.5832 74.6106C71.6445 74.1357 71.2734 73.7162 70.7927 73.7162H64.4912C63.9343 73.7162 63.4635 74.1259 63.3888 74.6757C62.8806 78.4025 61.0505 91.8037 60.7308 93.6611C60.3592 95.8226 60.2849 98.9359 57.0763 100.794C55.4751 101.721 54.654 101.898 54.0202 102.193C53.6979 102.343 53.3336 102.504 53.4898 103.063Z" fill="#FEFEFE"/>
<path fill-rule="evenodd" clip-rule="evenodd" d="M88.1688 91.5243C88.1688 91.5243 84.8828 92.6379 83.3055 91.4586C81.7276 90.2798 81.5963 87.8565 82.5166 84.3853C83.4368 80.9136 85.7372 80.3244 86.7228 80.2587C87.709 80.1931 89.5624 80.6581 89.5624 80.6581L88.1688 91.5243ZM97.2679 74.6131C95.143 74.0834 91.5705 72.9196 85.8275 73.3391C80.5287 73.726 74.5453 76.1684 73.4247 86.5924C72.3041 97.0163 77.0859 99.0269 83.9595 99.3248C88.9967 99.5431 92.9501 98.162 94.7034 97.4084C95.3138 97.1462 95.7389 96.5839 95.8282 95.9275L98.3678 75.8581C98.4674 75.0615 98.0678 74.8122 97.2679 74.6131Z" fill="#FEFEFE"/>
<path fill-rule="evenodd" clip-rule="evenodd" d="M102.169 89.6198L104.019 70.4017C104.085 69.7132 104.665 69.4324 105.359 69.4324H111.738C112.332 69.4324 112.584 69.8819 112.42 70.6179L108.526 89.8619C108.447 90.2343 108.118 90.5006 107.736 90.5006H102.972C102.496 90.5006 102.124 90.092 102.169 89.6198Z" fill="#FEFEFE"/>
<path fill-rule="evenodd" clip-rule="evenodd" d="M27.5164 125.057C28.7798 125.753 30.2554 125.955 31.6599 125.624C37.2545 124.302 49.6355 120.746 75.8253 116.974C108.729 112.234 133.022 112.253 133.022 112.253L133.086 112.215C133.086 112.215 111.554 109.266 76.2145 112.706C40.8747 116.146 21.1505 121.551 21.1505 121.551L27.5164 125.057Z" fill="#FEFEFE"/>
</g>
<path fill-rule="evenodd" clip-rule="evenodd" d="M314.212 139.683C316.437 140.809 319.036 141.136 321.51 140.6C331.364 138.462 353.17 132.708 399.298 126.604C457.25 118.934 500.039 118.966 500.039 118.966L500.151 118.903C500.151 118.903 462.226 114.132 399.984 119.698C337.74 125.264 303 134.011 303 134.011L314.212 139.683Z" fill="#E82529"/>
</g>
</g>
<defs>
<clipPath id="clip0_5_191">
<rect width="500" height="150" fill="white"/>
</clipPath>
<clipPath id="clip1_5_191">
<rect width="500" height="150" fill="white"/>
</clipPath>
<clipPath id="clip2_5_191">
<rect width="150" height="150" fill="white"/>
</clipPath>
</defs>
</svg>
