<svg width="493" height="154" viewBox="0 0 493 154" fill="none" xmlns="http://www.w3.org/2000/svg">
<path fill-rule="evenodd" clip-rule="evenodd" d="M135.779 129.875C120.593 144.336 100.366 152.279 79.4153 152.011C58.3601 152.329 38.0158 144.385 22.731 129.875C15.5392 122.889 9.82141 114.527 5.91672 105.285C2.01203 96.0432 0 86.1099 0 76.0745C0 66.0391 2.01203 56.1058 5.91672 46.8641C9.82141 37.6223 15.5392 29.2603 22.731 22.2742C37.9964 7.6783 58.3792 -0.318609 79.4793 0.00972502C100.43 -0.258806 120.657 7.68481 135.843 22.1458C143.043 29.1274 148.768 37.4879 152.678 46.7303C156.588 55.9727 158.602 65.9082 158.602 75.9462C158.602 85.9842 156.588 95.9197 152.678 105.162C148.768 114.404 143.043 122.765 135.843 129.747M79.4793 24.7765C72.7918 24.7117 66.1604 26.0049 59.9854 28.578C53.8104 31.1511 48.2198 34.9508 43.551 39.7477C38.8822 44.5447 35.2319 50.2394 32.8205 56.4884C30.409 62.7374 29.2864 69.411 29.5203 76.1066C29.5203 82.662 30.8092 89.1532 33.3134 95.2096C35.8177 101.266 39.4882 106.769 44.1154 111.404C48.7427 116.04 54.236 119.717 60.2818 122.225C66.3275 124.734 72.8073 126.025 79.3512 126.025C85.8951 126.025 92.375 124.734 98.4207 122.225C104.466 119.717 109.96 116.04 114.587 111.404C119.214 106.769 122.885 101.266 125.389 95.2096C127.893 89.1532 129.182 82.662 129.182 76.1066C129.415 69.4328 128.3 62.7806 125.905 56.5489C123.509 50.3171 119.881 44.6342 115.24 39.8409C110.599 35.0476 105.039 31.2425 98.8939 28.6539C92.749 26.0653 86.1454 24.7465 79.4793 24.7765ZM322.87 17.9111L261.958 154L258.499 153.358C241.078 150.214 237.555 145.851 229.421 128.142L183.753 28.4979H166.587V4.30862H231.47V28.4979H215.97L252.671 110.947L288.283 28.4979H269.068V4.30862H322.87V17.9111ZM470.185 129.875C454.802 144.106 434.632 152.009 413.693 152.009C392.754 152.009 372.583 144.106 357.2 129.875C350.009 122.889 344.291 114.527 340.386 105.285C336.482 96.0432 334.47 86.1099 334.47 76.0745C334.47 66.0391 336.482 56.1058 340.386 46.8641C344.291 37.6223 350.009 29.2603 357.2 22.2742C372.583 8.04281 392.754 0.139763 413.693 0.139763C434.632 0.139763 454.802 8.04281 470.185 22.2742C477.401 29.2465 483.14 37.604 487.06 46.8476C490.98 56.0912 493 66.0314 493 76.0745C493 86.1176 490.98 96.0578 487.06 105.301C483.14 114.545 477.401 122.903 470.185 129.875ZM414.141 24.7765C407.451 24.7121 400.816 26.005 394.638 28.5774C388.46 31.1498 382.865 34.9484 378.191 39.7443C373.517 44.5403 369.861 50.2344 367.442 56.4837C365.024 62.7329 363.893 69.4079 364.118 76.1066C364.118 82.662 365.407 89.1532 367.911 95.2096C370.415 101.266 374.086 106.769 378.713 111.404C383.34 116.04 388.834 119.717 394.879 122.225C400.925 124.734 407.405 126.025 413.949 126.025C420.493 126.025 426.973 124.734 433.018 122.225C439.064 119.717 444.557 116.04 449.185 111.404C453.812 106.769 457.482 101.266 459.987 95.2096C462.491 89.1532 463.78 82.662 463.78 76.1066C464.022 69.4359 462.915 62.7851 460.526 56.5536C458.138 50.3222 454.517 44.6386 449.88 39.8443C445.244 35.05 439.688 31.2439 433.547 28.6546C427.405 26.0653 420.804 24.7462 414.141 24.7765Z" fill="#4B2489"/>
</svg>
