<svg width="73" height="24" viewBox="0 0 73 24" fill="none" xmlns="http://www.w3.org/2000/svg">
<path fill-rule="evenodd" clip-rule="evenodd" d="M39.0341 16.8737C38.2408 18.1043 37.2916 18.7228 36.1926 18.7228C35.3031 18.7228 34.5472 18.4456 33.7763 17.7605V14.9383C34.397 15.5816 35.1766 16.1942 35.9462 16.1942C37.5507 16.1942 38.5048 14.5065 38.5048 12.1156C38.5048 9.72186 37.5171 7.98397 35.9115 7.98397C35.1947 7.98397 34.6136 8.37791 34.1597 9.16745C33.6732 10.0227 33.4217 11.2452 33.4217 12.8617V24H33.3008C32.4164 24 31.7001 22.9046 31.7001 21.5534V12.4432C31.7001 8.57627 33.2463 5.45597 35.9031 5.45597C37.2152 5.45597 38.281 6.14188 39.0895 7.51955C39.8492 8.80695 40.2257 10.4393 40.2257 12.4006C40.2257 14.1474 39.8284 15.6407 39.0345 16.8721L39.0341 16.8737ZM57.6671 16.7794C56.8769 18.076 55.8598 18.7229 54.6267 18.7229C53.3251 18.7229 52.2652 18.037 51.4567 16.6593C50.6973 15.356 50.3206 13.7229 50.3206 11.7783C50.3206 8.33481 52.0595 5.45689 54.3484 5.45689C55.2309 5.45689 55.9972 5.74162 56.7719 6.39075V9.24081C56.1513 8.59753 55.3718 7.98489 54.602 7.98489C52.9975 7.98489 52.0416 9.67236 52.0416 12.0663C52.0416 14.4263 53.0525 16.198 54.6349 16.198C55.3512 16.198 55.941 15.7876 56.4128 14.9613C56.8816 14.1399 57.1253 12.9333 57.1253 11.3116V2.44665C57.1253 1.09489 57.8421 0 58.7259 0H58.8468V11.729C58.8468 13.7945 58.4557 15.4845 57.6664 16.7827L57.6671 16.7794ZM62.5288 4.20627C62.3482 4.51551 62.0892 4.65788 61.7731 4.65788C61.1822 4.65788 60.7591 3.99175 60.7591 3.09522C60.7591 2.1778 61.1741 1.55848 61.7731 1.55848C62.3494 1.55848 62.7871 2.21151 62.7871 3.09522C62.7871 3.53234 62.7032 3.90705 62.5288 4.20627ZM71.2759 11.3105C71.2759 10.273 71.0192 9.45199 70.5034 8.8296C70.0388 8.26962 69.4584 7.98489 68.7522 7.98489C67.1938 7.98489 66.1936 9.84676 66.1936 12.1416C66.1936 14.3511 67.2541 16.1952 68.7358 16.1952C69.7665 16.1952 70.3176 15.275 70.9057 14.1285V17.4327C70.6062 17.7757 70.2618 18.1495 69.9101 18.3691C69.5391 18.6058 69.096 18.7209 68.5843 18.7209C66.106 18.7209 64.4726 15.5839 64.4726 11.9594C64.4726 10.0978 64.8509 8.55769 65.6125 7.35972C66.4206 6.08792 67.4813 5.45717 68.7788 5.45717C71.2389 5.45717 73 7.61658 73 11.5195V18.4649H72.8795C71.9948 18.4649 71.2779 17.3695 71.2779 16.018L71.2759 11.3105ZM47.7155 10.5653C47.498 9.53668 47.2253 9.03075 46.5979 8.49528C45.106 7.22097 43.6378 8.30586 42.9552 10.5552L47.7155 10.5653ZM46.4019 18.6836C45.3021 19.0408 44.2228 18.7654 43.1698 17.8659C42.1427 16.9894 41.4551 15.6859 41.1113 13.9628C40.4143 10.4803 41.842 6.59664 44.1389 5.65776C45.2771 5.19195 46.369 5.40279 47.4056 6.28823C49.1277 7.75978 49.7562 10.0354 49.6449 12.969L42.7081 12.9478C42.8104 14.1438 43.2954 15.0796 43.9774 15.6616C44.6687 16.252 45.3043 16.3932 45.8936 16.1135C46.5486 15.7993 47.0797 14.9824 47.5116 14.2221L48.9253 15.7962C48.3488 17.3731 47.5638 18.3064 46.4013 18.6853L46.4019 18.6836ZM60.9196 5.71766H62.6411V18.4635H62.52C61.6365 18.4635 60.9196 17.3681 60.9196 16.0166L60.9196 5.71766ZM2.52029 18.4635C0.836387 18.4635 0 16.7128 0 14.2678V4.99331C0 3.64183 0.716851 2.54666 1.60105 2.54666H1.72194V5.71989H4.63095V8.24733H1.72194V14.5631C1.72194 15.6369 2.03547 15.9386 2.7067 15.9386H4.63022V18.4657L2.52029 18.4635ZM12.5193 16.8527C11.6689 18.0991 10.6469 18.7234 9.45886 18.7234C8.28229 18.7234 7.26523 18.0983 6.41479 16.8527C5.56143 15.6018 5.13603 14.011 5.13603 12.0914C5.13603 8.34707 7.00663 5.45801 9.45758 5.45801C10.6345 5.45801 11.653 6.08792 12.5089 7.34272C13.3678 8.60143 13.7966 10.19 13.7966 12.09C13.7966 14.0087 13.3707 15.6004 12.5173 16.8513L12.5193 16.8527ZM20.5693 8.78447C20.3167 9.43193 20.1209 9.89607 19.9831 10.1766C19.8313 10.4817 19.6813 10.7252 19.5327 10.8937C20.7292 11.4844 21.1748 12.7514 21.1748 14.6381V18.4632H21.054C20.1699 18.4632 19.4529 17.3678 19.4529 16.0163V14.8989C19.4529 13.6766 19.0943 12.8475 18.2471 12.8475H16.6837V18.4641H16.5628C15.6788 18.4641 14.9625 17.3686 14.9625 16.0171V2.44665C14.9625 1.09489 15.6786 0 16.5628 0H16.6837V10.297H17.1925C17.7517 10.297 18.119 10.0047 18.33 9.45171L19.7761 5.72128L21.738 5.7183L20.5693 8.78447ZM29.457 16.8527C28.6062 18.0991 27.5845 18.7234 26.3965 18.7234C25.2201 18.7234 24.2028 18.0983 23.3524 16.8527C22.499 15.6018 22.0736 14.011 22.0736 12.0914C22.0736 8.34707 23.9442 5.45801 26.3952 5.45801C27.5725 5.45801 28.5906 6.08792 29.4466 7.34272C30.3054 8.60143 30.7341 10.19 30.7341 12.09C30.7341 14.0087 30.3083 15.6004 29.4549 16.8513L29.457 16.8527ZM28.2143 9.12435C27.7397 8.36573 27.1372 7.98489 26.3963 7.98489C24.812 7.98489 23.8632 9.75036 23.8632 12.0914C23.8632 14.399 24.8341 16.198 26.3963 16.198C27.9587 16.198 28.9294 14.4002 28.9294 12.0914C28.9294 10.8661 28.6883 9.88298 28.2143 9.12435ZM11.2785 9.12435C10.804 8.36573 10.2014 7.98489 9.46068 7.98489C7.87642 7.98489 6.92761 9.75036 6.92761 12.0914C6.92761 14.399 7.8985 16.198 9.46068 16.198C11.0229 16.198 11.9937 14.4002 11.9937 12.0914C11.9937 10.8661 11.753 9.88298 11.2789 9.12435H11.2785Z" fill="#42B549"/>
</svg>
