<svg width="137" height="27" viewBox="0 0 137 27" fill="none" xmlns="http://www.w3.org/2000/svg">
<path fill-rule="evenodd" clip-rule="evenodd" d="M124.542 6.56402C129.937 3.54812 136.656 3.0159 136.656 3.0159C136.656 3.0159 129.53 10.1121 127.698 13.3941C127.189 14.8134 128.308 15.9665 128.308 15.9665C128.308 15.9665 125.255 12.9506 124.542 6.56402Z" fill="#1BA0E2"/>
<path fill-rule="evenodd" clip-rule="evenodd" d="M126.883 5.49958C126.069 5.85439 125.356 6.2092 124.542 6.65272C124.848 9.84602 125.865 12.241 126.782 13.8377C127.291 14.5473 127.698 15.1682 128.003 15.6117C127.8 15.3456 127.698 14.9021 127.596 14.4586C127.189 12.8619 126.782 10.2008 126.883 5.49958Z" fill="#0D7FCC"/>
<path fill-rule="evenodd" clip-rule="evenodd" d="M119.758 9.40251C119.758 9.40251 119.453 8.33808 119.249 7.98326C118.944 7.18494 118.536 6.29791 118.536 4.78996C118.536 2.74979 122.404 0.62092 124.848 0C124.237 7.27364 125.153 9.49121 125.967 11.9749C128.003 17.918 132.686 18.805 133.195 19.1598C131.973 18.8937 132.686 19.4259 132.686 19.4259C132.686 19.4259 130.752 18.2728 126.985 17.2971C123.117 16.3213 120.165 16.2326 118.333 15.2569C116.908 14.3699 116.908 13.5715 116.195 13.0393C113.956 11.354 108.459 10.6444 108.459 10.6444L113.243 11.354C113.243 11.354 113.854 11.354 114.668 11.0879C114.872 11.0879 115.381 10.5556 116.501 10.9105C117.009 11.0879 116.806 11.1766 118.231 11.5314C119.961 12.0636 119.758 9.40251 119.758 9.40251Z" fill="#1BA0E2"/>
<path fill-rule="evenodd" clip-rule="evenodd" d="M2.03586 21.9983C2.03586 26.2561 5.8022 26.7883 7.63447 26.7883C8.24523 26.7883 8.6524 26.6996 8.6524 26.6996V24.5707C8.6524 24.5707 8.34702 24.6594 7.93985 24.6594C6.82013 24.6594 4.78427 24.3046 4.78427 21.8209V16.1439H8.34702V14.1925H4.78427V10.3782H2.03586V14.1038H0V16.0552H1.93407V21.9983H2.03586ZM11.1972 26.6109H14.0474V21.3774C14.0474 20.5791 14.1492 19.7808 14.3528 19.0711C15.0654 17.2084 16.694 16.0552 18.4245 16.0552C18.8317 16.0552 19.2389 16.1439 19.2389 16.1439V13.749C19.2389 13.749 18.9335 13.6603 18.5263 13.6603C16.2869 13.6603 14.5564 15.0795 13.9456 17.031H13.8438C13.8438 17.031 13.9456 16.5875 13.9456 16.0552V13.8377H11.1972V26.6109ZM20.2568 23.0628C20.2568 25.6352 22.6998 26.9657 25.2446 26.9657C28.7056 26.9657 29.9271 24.482 29.9271 24.482H30.0289C30.0289 24.482 29.9271 24.9255 29.9271 25.4577V26.6996H32.5737V18.6276C32.5737 15.4343 30.5379 13.6603 26.7715 13.6603C23.4124 13.6603 21.2747 15.1682 21.2747 15.1682L22.3944 16.9423C22.3944 16.9423 24.2267 15.7004 26.4662 15.7004C28.2984 15.7004 29.7235 16.41 29.7235 18.5389V18.805H29.1128C26.568 18.6276 20.2568 18.805 20.2568 23.0628ZM23.107 22.8854C23.107 20.5791 26.8733 20.4904 29.011 20.4904H29.7235V20.9339C29.7235 22.7967 28.1966 25.0142 25.8554 25.0142C24.0231 24.9255 23.107 23.9498 23.107 22.8854ZM39.5975 26.6109H42.8548L48.2499 13.8377H45.2979L41.7351 22.4418C41.4297 23.1515 41.2261 24.2159 41.2261 24.2159H41.1244C41.1244 24.2159 40.9208 23.1515 40.6154 22.4418L37.0526 13.8377H34.1006L39.5975 26.6109ZM48.9624 20.2243C48.9624 24.0385 52.118 26.877 56.6987 26.877C60.1596 26.877 62.3991 25.1029 62.3991 25.1029L61.2794 23.3289C61.2794 23.3289 59.4471 24.8368 56.9023 24.8368C54.2556 24.8368 52.0162 23.4176 51.9144 20.6678H62.6027C62.6027 20.6678 62.7045 19.9582 62.7045 19.6034C62.7045 16.3213 60.465 13.6603 56.3933 13.6603C52.118 13.5716 48.9624 16.1439 48.9624 20.2243ZM51.9144 18.7163C52.3216 16.5875 54.0521 15.4343 56.1897 15.4343C58.022 15.4343 59.6507 16.4987 59.7525 18.7163H51.9144ZM65.1475 23.1515C65.1475 26.3448 67.4887 26.6996 69.1174 26.6996C69.6264 26.6996 70.0335 26.6109 70.0335 26.6109V24.482C70.0335 24.482 69.83 24.482 69.5246 24.482C68.6084 24.482 67.9977 24.2159 67.9977 22.708V8.78159H65.1475V23.1515ZM71.3569 20.2243C71.3569 24.1272 74.9196 26.9657 79.2967 26.9657C83.6738 26.9657 87.2365 24.1272 87.2365 20.2243C87.2365 16.41 83.6738 13.5715 79.2967 13.5715C74.8178 13.5715 71.3569 16.3213 71.3569 20.2243ZM74.207 20.2243C74.207 17.5632 76.4465 15.7004 79.1949 15.7004C81.9433 15.7004 84.1828 17.5632 84.1828 20.2243C84.1828 22.8854 81.9433 24.8368 79.1949 24.8368C76.4465 24.8368 74.207 22.8854 74.207 20.2243ZM89.8832 26.6109H92.7334V20.5791H94.871L99.2481 26.6109H102.505L97.1105 19.5146V19.4259L101.997 13.8377H98.841L94.871 18.5389H92.8352V8.78159H89.985V26.6109H89.8832ZM103.218 23.0628C103.218 25.6352 105.661 26.9657 108.206 26.9657C111.667 26.9657 112.888 24.482 112.888 24.482H112.99C112.99 24.482 112.888 24.9255 112.888 25.4577V26.6996H115.535V18.6276C115.535 15.4343 113.499 13.6603 109.733 13.6603C106.374 13.6603 104.236 15.1682 104.236 15.1682L105.356 16.9423C105.356 16.9423 107.188 15.7004 109.427 15.7004C111.26 15.7004 112.685 16.41 112.685 18.5389V18.805H112.074C109.529 18.6276 103.218 18.805 103.218 23.0628ZM106.068 22.8854C106.068 20.5791 109.835 20.4904 111.972 20.4904H112.685V20.9339C112.685 22.7967 111.158 25.0142 108.817 25.0142C106.984 24.9255 106.068 23.9498 106.068 22.8854Z" fill="#434343"/>
</svg>
